<svg width="272" height="56" viewBox="0 0 272 56" fill="none" xmlns="http://www.w3.org/2000/svg">
<path d="M0 8C0 3.58172 3.58172 0 8 0H264C268.418 0 272 3.58172 272 8V48C272 52.4183 268.418 56 264 56H8.00001C3.58173 56 0 52.4183 0 48V8Z" fill="#5081FB"/>
<path d="M91.4643 25.2727H92.8279C92.7654 23.517 91.1461 22.2045 88.8961 22.2045C86.6688 22.2045 84.9188 23.5 84.9188 25.4545C84.9188 27.0227 86.0552 27.9545 87.8733 28.4773L89.3052 28.8864C90.5324 29.2273 91.6233 29.6591 91.6233 30.8182C91.6233 32.0909 90.3961 32.9318 88.7824 32.9318C87.3961 32.9318 86.1688 32.3182 86.0552 31H84.6006C84.737 32.9091 86.2824 34.2045 88.7824 34.2045C91.4643 34.2045 92.987 32.7273 92.987 30.8409C92.987 28.6591 90.9188 27.9545 89.7143 27.6364L88.5324 27.3182C87.6688 27.0909 86.2824 26.6364 86.2824 25.3864C86.2824 24.2727 87.3052 23.4545 88.8506 23.4545C90.2597 23.4545 91.3279 24.125 91.4643 25.2727ZM97.6901 34.2045C99.2128 34.2045 100.008 33.3864 100.281 32.8182H100.349V34H101.69V28.25C101.69 25.4773 99.5765 25.1591 98.4628 25.1591C97.1447 25.1591 95.6447 25.6136 94.9628 27.2045L96.2356 27.6591C96.531 27.0227 97.2299 26.3409 98.5083 26.3409C99.7412 26.3409 100.349 26.9943 100.349 28.1136V28.1591C100.349 28.8068 99.6901 28.75 98.0992 28.9545C96.4799 29.1648 94.7128 29.5227 94.7128 31.5227C94.7128 33.2273 96.031 34.2045 97.6901 34.2045ZM97.8947 33C96.8265 33 96.0537 32.5227 96.0537 31.5909C96.0537 30.5682 96.9856 30.25 98.031 30.1136C98.5992 30.0455 100.122 29.8864 100.349 29.6136V30.8409C100.349 31.9318 99.4856 33 97.8947 33ZM105.478 22.3636H104.138V34H105.478V22.3636ZM115.071 25.2727H113.616L111.207 32.2273H111.116L108.707 25.2727H107.253L110.48 34H111.844L115.071 25.2727ZM119.143 34.2045C120.666 34.2045 121.461 33.3864 121.734 32.8182H121.802V34H123.143V28.25C123.143 25.4773 121.03 25.1591 119.916 25.1591C118.598 25.1591 117.098 25.6136 116.416 27.2045L117.689 27.6591C117.984 27.0227 118.683 26.3409 119.961 26.3409C121.194 26.3409 121.802 26.9943 121.802 28.1136V28.1591C121.802 28.8068 121.143 28.75 119.552 28.9545C117.933 29.1648 116.166 29.5227 116.166 31.5227C116.166 33.2273 117.484 34.2045 119.143 34.2045ZM119.348 33C118.28 33 117.507 32.5227 117.507 31.5909C117.507 30.5682 118.439 30.25 119.484 30.1136C120.052 30.0455 121.575 29.8864 121.802 29.6136V30.8409C121.802 31.9318 120.939 33 119.348 33ZM125.591 34H126.932V28.4773C126.932 27.2955 127.863 26.4318 129.136 26.4318C129.494 26.4318 129.863 26.5 129.954 26.5227V25.1591C129.801 25.1477 129.449 25.1364 129.25 25.1364C128.204 25.1364 127.295 25.7273 126.977 26.5909H126.886V25.2727H125.591V34ZM136.044 37.2727H137.385V32.6591H137.498C137.794 33.1364 138.362 34.1818 140.044 34.1818C142.226 34.1818 143.748 32.4318 143.748 29.6591C143.748 26.9091 142.226 25.1591 140.021 25.1591C138.317 25.1591 137.794 26.2045 137.498 26.6591H137.339V25.2727H136.044V37.2727ZM137.362 29.6364C137.362 27.6818 138.226 26.3636 139.862 26.3636C141.567 26.3636 142.407 27.7955 142.407 29.6364C142.407 31.5 141.544 32.9773 139.862 32.9773C138.248 32.9773 137.362 31.6136 137.362 29.6364ZM145.794 34H147.135V28.4773C147.135 27.2955 148.067 26.4318 149.339 26.4318C149.697 26.4318 150.067 26.5 150.157 26.5227V25.1591C150.004 25.1477 149.652 25.1364 149.453 25.1364C148.407 25.1364 147.498 25.7273 147.18 26.5909H147.089V25.2727H145.794V34ZM155.027 34.1818C157.39 34.1818 158.981 32.3864 158.981 29.6818C158.981 26.9545 157.39 25.1591 155.027 25.1591C152.663 25.1591 151.072 26.9545 151.072 29.6818C151.072 32.3864 152.663 34.1818 155.027 34.1818ZM155.027 32.9773C153.231 32.9773 152.413 31.4318 152.413 29.6818C152.413 27.9318 153.231 26.3636 155.027 26.3636C156.822 26.3636 157.64 27.9318 157.64 29.6818C157.64 31.4318 156.822 32.9773 155.027 32.9773ZM161.028 25.2727V34.6364C161.028 35.5227 160.665 36.0227 159.846 36.0227H159.596V37.2727H159.869C161.551 37.2727 162.369 36.25 162.369 34.6364V25.2727H161.028ZM161.687 23.8182C162.21 23.8182 162.642 23.4091 162.642 22.9091C162.642 22.4091 162.21 22 161.687 22C161.165 22 160.733 22.4091 160.733 22.9091C160.733 23.4091 161.165 23.8182 161.687 23.8182ZM168.484 34.1818C170.257 34.1818 171.552 33.2955 171.961 31.9773L170.666 31.6136C170.325 32.5227 169.535 32.9773 168.484 32.9773C166.91 32.9773 165.825 31.9602 165.763 30.0909H172.098V29.5227C172.098 26.2727 170.166 25.1591 168.348 25.1591C165.984 25.1591 164.416 27.0227 164.416 29.7045C164.416 32.3864 165.961 34.1818 168.484 34.1818ZM165.763 28.9318C165.853 27.5739 166.814 26.3636 168.348 26.3636C169.802 26.3636 170.734 27.4545 170.734 28.9318H165.763ZM177.933 25.2727H176.069V23.1818H174.728V25.2727H173.41V26.4091H174.728V31.8636C174.728 33.3864 175.956 34.1136 177.092 34.1136C177.592 34.1136 177.91 34.0227 178.092 33.9545L177.819 32.75C177.706 32.7727 177.524 32.8182 177.228 32.8182C176.638 32.8182 176.069 32.6364 176.069 31.5V26.4091H177.933V25.2727ZM183.402 34.1818C185.765 34.1818 187.356 32.3864 187.356 29.6818C187.356 26.9545 185.765 25.1591 183.402 25.1591C181.038 25.1591 179.447 26.9545 179.447 29.6818C179.447 32.3864 181.038 34.1818 183.402 34.1818ZM183.402 32.9773C181.606 32.9773 180.788 31.4318 180.788 29.6818C180.788 27.9318 181.606 26.3636 183.402 26.3636C185.197 26.3636 186.015 27.9318 186.015 29.6818C186.015 31.4318 185.197 32.9773 183.402 32.9773Z" fill="#051D3B"/>
</svg>
