<svg width="752" height="56" viewBox="0 0 752 56" fill="none" xmlns="http://www.w3.org/2000/svg">
<path d="M0 8C0 3.58172 3.58172 0 8 0H744C748.418 0 752 3.58172 752 8V48C752 52.4183 748.418 56 744 56H8C3.58172 56 0 52.4183 0 48V8Z" fill="#5081FB" fill-opacity="0.08"/>
<path d="M281.85 22.3636H280.373L284.646 34H286.1L290.373 22.3636H288.896L285.441 32.1591H285.305L281.85 22.3636ZM292.004 34H293.345V25.2727H292.004V34ZM292.685 23.8182C293.208 23.8182 293.64 23.4091 293.64 22.9091C293.64 22.4091 293.208 22 292.685 22C292.163 22 291.731 22.4091 291.731 22.9091C291.731 23.4091 292.163 23.8182 292.685 23.8182ZM301.982 27.2273C301.562 25.9886 300.619 25.1591 298.891 25.1591C297.051 25.1591 295.687 26.2045 295.687 27.6818C295.687 28.8864 296.403 29.6932 298.005 30.0682L299.46 30.4091C300.34 30.6136 300.755 31.0341 300.755 31.6364C300.755 32.3864 299.96 33 298.71 33C297.613 33 296.926 32.5284 296.687 31.5909L295.414 31.9091C295.727 33.392 296.948 34.1818 298.732 34.1818C300.761 34.1818 302.141 33.0739 302.141 31.5682C302.141 30.3523 301.38 29.5852 299.823 29.2045L298.528 28.8864C297.494 28.6307 297.028 28.2841 297.028 27.6136C297.028 26.8636 297.823 26.3182 298.891 26.3182C300.062 26.3182 300.545 26.9659 300.778 27.5682L301.982 27.2273ZM309.66 30.4318C309.66 32.0682 308.41 32.8182 307.41 32.8182C306.296 32.8182 305.501 32 305.501 30.7273V25.2727H304.16V30.8182C304.16 33.0455 305.342 34.1136 306.978 34.1136C308.296 34.1136 309.16 33.4091 309.569 32.5227H309.66V34H311.001V25.2727H309.66V30.4318ZM316.025 34.2045C317.548 34.2045 318.343 33.3864 318.616 32.8182H318.684V34H320.025V28.25C320.025 25.4773 317.911 25.1591 316.798 25.1591C315.479 25.1591 313.979 25.6136 313.298 27.2045L314.57 27.6591C314.866 27.0227 315.565 26.3409 316.843 26.3409C318.076 26.3409 318.684 26.9943 318.684 28.1136V28.1591C318.684 28.8068 318.025 28.75 316.434 28.9545C314.815 29.1648 313.048 29.5227 313.048 31.5227C313.048 33.2273 314.366 34.2045 316.025 34.2045ZM316.229 33C315.161 33 314.389 32.5227 314.389 31.5909C314.389 30.5682 315.32 30.25 316.366 30.1136C316.934 30.0455 318.457 29.8864 318.684 29.6136V30.8409C318.684 31.9318 317.82 33 316.229 33ZM323.813 22.3636H322.472V34H323.813V22.3636ZM326.269 34H327.61V25.2727H326.269V34ZM326.951 23.8182C327.474 23.8182 327.906 23.4091 327.906 22.9091C327.906 22.4091 327.474 22 326.951 22C326.428 22 325.997 22.4091 325.997 22.9091C325.997 23.4091 326.428 23.8182 326.951 23.8182ZM329.816 34H336.657V32.75H331.68V32.6591L336.498 26.3409V25.2727H329.975V26.5227H334.771V26.6136L329.816 32.9773V34ZM341.291 34.2045C342.813 34.2045 343.609 33.3864 343.881 32.8182H343.95V34H345.291V28.25C345.291 25.4773 343.177 25.1591 342.063 25.1591C340.745 25.1591 339.245 25.6136 338.563 27.2045L339.836 27.6591C340.131 27.0227 340.83 26.3409 342.109 26.3409C343.342 26.3409 343.95 26.9943 343.95 28.1136V28.1591C343.95 28.8068 343.291 28.75 341.7 28.9545C340.08 29.1648 338.313 29.5227 338.313 31.5227C338.313 33.2273 339.631 34.2045 341.291 34.2045ZM341.495 33C340.427 33 339.654 32.5227 339.654 31.5909C339.654 30.5682 340.586 30.25 341.631 30.1136C342.2 30.0455 343.722 29.8864 343.95 29.6136V30.8409C343.95 31.9318 343.086 33 341.495 33ZM347.738 34H349.079V28.4773C349.079 27.2955 350.011 26.4318 351.283 26.4318C351.641 26.4318 352.011 26.5 352.102 26.5227V25.1591C351.948 25.1477 351.596 25.1364 351.397 25.1364C350.352 25.1364 349.443 25.7273 349.124 26.5909H349.033V25.2727H347.738V34ZM361.737 34.1818C363.668 34.1818 364.941 33 365.168 31.4545H363.828C363.578 32.4091 362.782 32.9773 361.737 32.9773C360.146 32.9773 359.123 31.6591 359.123 29.6364C359.123 27.6591 360.168 26.3636 361.737 26.3636C362.918 26.3636 363.623 27.0909 363.828 27.8864H365.168C364.941 26.25 363.555 25.1591 361.714 25.1591C359.35 25.1591 357.782 27.0227 357.782 29.6818C357.782 32.2955 359.282 34.1818 361.737 34.1818ZM370.674 34.1818C373.038 34.1818 374.629 32.3864 374.629 29.6818C374.629 26.9545 373.038 25.1591 370.674 25.1591C368.31 25.1591 366.72 26.9545 366.72 29.6818C366.72 32.3864 368.31 34.1818 370.674 34.1818ZM370.674 32.9773C368.879 32.9773 368.06 31.4318 368.06 29.6818C368.06 27.9318 368.879 26.3636 370.674 26.3636C372.47 26.3636 373.288 27.9318 373.288 29.6818C373.288 31.4318 372.47 32.9773 370.674 32.9773ZM376.676 34H378.016V28.5455C378.016 27.267 378.948 26.3636 379.994 26.3636C381.011 26.3636 381.721 27.0284 381.721 28.0227V34H383.085V28.3182C383.085 27.1932 383.789 26.3636 385.016 26.3636C385.971 26.3636 386.789 26.8693 386.789 28.1591V34H388.13V28.1591C388.13 26.108 387.028 25.1591 385.471 25.1591C384.221 25.1591 383.306 25.733 382.857 26.6364H382.766C382.335 25.7045 381.573 25.1591 380.426 25.1591C379.289 25.1591 378.448 25.7045 378.085 26.6364H377.971V25.2727H376.676V34ZM398.627 34.1818C400.991 34.1818 402.582 32.3864 402.582 29.6818C402.582 26.9545 400.991 25.1591 398.627 25.1591C396.264 25.1591 394.673 26.9545 394.673 29.6818C394.673 32.3864 396.264 34.1818 398.627 34.1818ZM398.627 32.9773C396.832 32.9773 396.014 31.4318 396.014 29.6818C396.014 27.9318 396.832 26.3636 398.627 26.3636C400.423 26.3636 401.241 27.9318 401.241 29.6818C401.241 31.4318 400.423 32.9773 398.627 32.9773ZM410.47 28.75C410.47 27.2273 411.441 26.3636 412.765 26.3636C414.026 26.3636 414.788 27.1591 414.788 28.5455V34H416.129V28.4545C416.129 26.2102 414.935 25.1591 413.151 25.1591C411.776 25.1591 410.992 25.733 410.583 26.6364H410.47V22.3636H409.129V34H410.47V28.75ZM418.582 34H419.923V25.2727H418.582V34ZM419.264 23.8182C419.786 23.8182 420.218 23.4091 420.218 22.9091C420.218 22.4091 419.786 22 419.264 22C418.741 22 418.309 22.4091 418.309 22.9091C418.309 23.4091 418.741 23.8182 419.264 23.8182ZM425.901 37.4545C427.992 37.4545 429.674 36.5 429.674 34.25V25.2727H428.379V26.6591H428.242C427.947 26.2045 427.401 25.1591 425.697 25.1591C423.492 25.1591 421.97 26.9091 421.97 29.5909C421.97 32.3182 423.56 33.8636 425.674 33.8636C427.379 33.8636 427.924 32.8636 428.22 32.3864H428.333V34.1591C428.333 35.6136 427.31 36.2727 425.901 36.2727C424.316 36.2727 423.759 35.4375 423.401 34.9545L422.333 35.7045C422.879 36.6193 423.953 37.4545 425.901 37.4545ZM425.856 32.6591C424.174 32.6591 423.31 31.3864 423.31 29.5682C423.31 27.7955 424.151 26.3636 425.856 26.3636C427.492 26.3636 428.356 27.6818 428.356 29.5682C428.356 31.5 427.47 32.6591 425.856 32.6591ZM433.47 28.75C433.47 27.2273 434.441 26.3636 435.765 26.3636C437.026 26.3636 437.788 27.1591 437.788 28.5455V34H439.129V28.4545C439.129 26.2102 437.935 25.1591 436.151 25.1591C434.776 25.1591 433.992 25.733 433.583 26.6364H433.47V22.3636H432.129V34H433.47V28.75ZM442.923 22.3636H441.582V34H442.923V22.3636ZM445.379 34H446.72V25.2727H445.379V34ZM446.06 23.8182C446.583 23.8182 447.015 23.4091 447.015 22.9091C447.015 22.4091 446.583 22 446.06 22C445.538 22 445.106 22.4091 445.106 22.9091C445.106 23.4091 445.538 23.8182 446.06 23.8182ZM452.698 37.4545C454.789 37.4545 456.471 36.5 456.471 34.25V25.2727H455.176V26.6591H455.039C454.744 26.2045 454.198 25.1591 452.494 25.1591C450.289 25.1591 448.766 26.9091 448.766 29.5909C448.766 32.3182 450.357 33.8636 452.471 33.8636C454.176 33.8636 454.721 32.8636 455.016 32.3864H455.13V34.1591C455.13 35.6136 454.107 36.2727 452.698 36.2727C451.113 36.2727 450.556 35.4375 450.198 34.9545L449.13 35.7045C449.676 36.6193 450.749 37.4545 452.698 37.4545ZM452.653 32.6591C450.971 32.6591 450.107 31.3864 450.107 29.5682C450.107 27.7955 450.948 26.3636 452.653 26.3636C454.289 26.3636 455.153 27.6818 455.153 29.5682C455.153 31.5 454.266 32.6591 452.653 32.6591ZM460.266 28.75C460.266 27.2273 461.238 26.3636 462.562 26.3636C463.823 26.3636 464.585 27.1591 464.585 28.5455V34H465.926V28.4545C465.926 26.2102 464.732 25.1591 462.948 25.1591C461.573 25.1591 460.789 25.733 460.38 26.6364H460.266V22.3636H458.926V34H460.266V28.75ZM472.174 25.2727H470.31V23.1818H468.97V25.2727H467.651V26.4091H468.97V31.8636C468.97 33.3864 470.197 34.1136 471.333 34.1136C471.833 34.1136 472.151 34.0227 472.333 33.9545L472.06 32.75C471.947 32.7727 471.765 32.8182 471.47 32.8182C470.879 32.8182 470.31 32.6364 470.31 31.5V26.4091H472.174V25.2727Z" fill="white"/>
</svg>
