<svg width="272" height="80" viewBox="0 0 272 80" fill="none" xmlns="http://www.w3.org/2000/svg">
<rect width="272" height="80" rx="8" fill="white" fill-opacity="0.16"/>
<path opacity="0.64" d="M19 34C22.5455 34 24.5455 31.7955 24.5455 28.1591C24.5455 24.5455 22.5455 22.3636 19.1591 22.3636H15.4091V34H19ZM16.8182 32.75V23.6136H19.0682C21.7955 23.6136 23.1818 25.3409 23.1818 28.1591C23.1818 31 21.7955 32.75 18.9091 32.75H16.8182ZM30.3864 34.1818C32.1591 34.1818 33.4545 33.2955 33.8636 31.9773L32.5682 31.6136C32.2273 32.5227 31.4375 32.9773 30.3864 32.9773C28.8125 32.9773 27.7273 31.9602 27.6648 30.0909H34V29.5227C34 26.2727 32.0682 25.1591 30.25 25.1591C27.8864 25.1591 26.3182 27.0227 26.3182 29.7045C26.3182 32.3864 27.8636 34.1818 30.3864 34.1818ZM27.6648 28.9318C27.7557 27.5739 28.7159 26.3636 30.25 26.3636C31.7045 26.3636 32.6364 27.4545 32.6364 28.9318H27.6648ZM42.2216 27.2273C41.8011 25.9886 40.858 25.1591 39.1307 25.1591C37.2898 25.1591 35.9261 26.2045 35.9261 27.6818C35.9261 28.8864 36.642 29.6932 38.2443 30.0682L39.6989 30.4091C40.5795 30.6136 40.9943 31.0341 40.9943 31.6364C40.9943 32.3864 40.1989 33 38.9489 33C37.8523 33 37.1648 32.5284 36.9261 31.5909L35.6534 31.9091C35.9659 33.392 37.1875 34.1818 38.9716 34.1818C41 34.1818 42.3807 33.0739 42.3807 31.5682C42.3807 30.3523 41.6193 29.5852 40.0625 29.2045L38.767 28.8864C37.733 28.6307 37.267 28.2841 37.267 27.6136C37.267 26.8636 38.0625 26.3182 39.1307 26.3182C40.3011 26.3182 40.7841 26.9659 41.017 27.5682L42.2216 27.2273ZM47.9446 34.1818C49.8764 34.1818 51.1491 33 51.3764 31.4545H50.0355C49.7855 32.4091 48.9901 32.9773 47.9446 32.9773C46.3537 32.9773 45.331 31.6591 45.331 29.6364C45.331 27.6591 46.3764 26.3636 47.9446 26.3636C49.1264 26.3636 49.831 27.0909 50.0355 27.8864H51.3764C51.1491 26.25 49.7628 25.1591 47.9219 25.1591C45.5582 25.1591 43.9901 27.0227 43.9901 29.6818C43.9901 32.2955 45.4901 34.1818 47.9446 34.1818ZM53.3366 34H54.6776V28.4773C54.6776 27.2955 55.6094 26.4318 56.8821 26.4318C57.2401 26.4318 57.6094 26.5 57.7003 26.5227V25.1591C57.5469 25.1477 57.1946 25.1364 56.9957 25.1364C55.9503 25.1364 55.0412 25.7273 54.723 26.5909H54.6321V25.2727H53.3366V34ZM59.2898 34H60.6307V25.2727H59.2898V34ZM59.9716 23.8182C60.4943 23.8182 60.9261 23.4091 60.9261 22.9091C60.9261 22.4091 60.4943 22 59.9716 22C59.4489 22 59.017 22.4091 59.017 22.9091C59.017 23.4091 59.4489 23.8182 59.9716 23.8182ZM67.0696 34.1591C68.7571 33.9943 69.8537 32.8807 70.0639 31.4545H68.723C68.473 32.4091 67.6776 32.9773 66.6321 32.9773C65.0412 32.9773 64.0185 31.6591 64.0185 29.6364C64.0185 27.6591 65.0639 26.3636 66.6321 26.3636C67.8139 26.3636 68.5185 27.0909 68.723 27.8864H70.0639C69.8366 26.25 68.4503 25.1591 66.6094 25.1591C64.2457 25.1591 62.6776 27.0227 62.6776 29.6818C62.6776 32.0455 63.9048 33.8182 65.9616 34.1307L65.7685 35.0682C66.6321 35.1364 66.9957 35.2727 66.9957 35.7955C66.9957 36.3182 66.473 36.5227 65.7685 36.5227L65.8139 37.4091C67.3821 37.4091 68.2003 36.7273 68.2003 35.75C68.2003 34.8636 67.6094 34.5 67.0185 34.4091L67.0696 34.1591ZM74.5923 34.2045C76.1151 34.2045 76.9105 33.3864 77.1832 32.8182H77.2514V34H78.5923V28.25C78.5923 25.4773 76.4787 25.1591 75.3651 25.1591C74.0469 25.1591 72.5469 25.6136 71.8651 27.2045L73.1378 27.6591C73.4332 27.0227 74.1321 26.3409 75.4105 26.3409C76.6435 26.3409 77.2514 26.9943 77.2514 28.1136V28.1591C77.2514 28.8068 76.5923 28.75 75.0014 28.9545C73.3821 29.1648 71.6151 29.5227 71.6151 31.5227C71.6151 33.2273 72.9332 34.2045 74.5923 34.2045ZM74.7969 33C73.7287 33 72.956 32.5227 72.956 31.5909C72.956 30.5682 73.8878 30.25 74.9332 30.1136C75.5014 30.0455 77.0241 29.8864 77.2514 29.6136V30.8409C77.2514 31.9318 76.3878 33 74.7969 33ZM73.706 24.2273C73.706 23.75 74.0241 23.3636 74.456 23.3636C75.3196 23.3636 75.4787 24.0909 76.5241 24.0909C77.5014 24.0909 78.2514 23.3409 78.2514 22.1591L77.2287 22.0682C77.2287 22.5455 76.8878 22.9318 76.456 22.9318C75.6378 22.9318 75.2514 22.2045 74.3878 22.2045C73.4105 22.2045 72.6605 23.0227 72.6605 24.1818L73.706 24.2273ZM84.5852 34.1818C86.9489 34.1818 88.5398 32.3864 88.5398 29.6818C88.5398 26.9545 86.9489 25.1591 84.5852 25.1591C82.2216 25.1591 80.6307 26.9545 80.6307 29.6818C80.6307 32.3864 82.2216 34.1818 84.5852 34.1818ZM84.5852 32.9773C82.7898 32.9773 81.9716 31.4318 81.9716 29.6818C81.9716 27.9318 82.7898 26.3636 84.5852 26.3636C86.3807 26.3636 87.1989 27.9318 87.1989 29.6818C87.1989 31.4318 86.3807 32.9773 84.5852 32.9773ZM98.3821 34.1818C100.064 34.1818 100.632 33.1364 100.928 32.6591H101.087V34H102.382V22.3636H101.041V26.6591H100.928C100.632 26.2045 100.109 25.1591 98.4048 25.1591C96.2003 25.1591 94.6776 26.9091 94.6776 29.6591C94.6776 32.4318 96.2003 34.1818 98.3821 34.1818ZM98.5639 32.9773C96.8821 32.9773 96.0185 31.5 96.0185 29.6364C96.0185 27.7955 96.8594 26.3636 98.5639 26.3636C100.2 26.3636 101.064 27.6818 101.064 29.6364C101.064 31.6136 100.178 32.9773 98.5639 32.9773ZM108.57 34.1818C110.933 34.1818 112.524 32.3864 112.524 29.6818C112.524 26.9545 110.933 25.1591 108.57 25.1591C106.206 25.1591 104.615 26.9545 104.615 29.6818C104.615 32.3864 106.206 34.1818 108.57 34.1818ZM108.57 32.9773C106.774 32.9773 105.956 31.4318 105.956 29.6818C105.956 27.9318 106.774 26.3636 108.57 26.3636C110.365 26.3636 111.183 27.9318 111.183 29.6818C111.183 31.4318 110.365 32.9773 108.57 32.9773ZM125.253 27.2273C124.832 25.9886 123.889 25.1591 122.162 25.1591C120.321 25.1591 118.957 26.2045 118.957 27.6818C118.957 28.8864 119.673 29.6932 121.276 30.0682L122.73 30.4091C123.611 30.6136 124.026 31.0341 124.026 31.6364C124.026 32.3864 123.23 33 121.98 33C120.884 33 120.196 32.5284 119.957 31.5909L118.685 31.9091C118.997 33.392 120.219 34.1818 122.003 34.1818C124.031 34.1818 125.412 33.0739 125.412 31.5682C125.412 30.3523 124.651 29.5852 123.094 29.2045L121.798 28.8864C120.764 28.6307 120.298 28.2841 120.298 27.6136C120.298 26.8636 121.094 26.3182 122.162 26.3182C123.332 26.3182 123.815 26.9659 124.048 27.5682L125.253 27.2273ZM131.089 34.1818C132.862 34.1818 134.158 33.2955 134.567 31.9773L133.271 31.6136C132.93 32.5227 132.141 32.9773 131.089 32.9773C129.516 32.9773 128.43 31.9602 128.368 30.0909H134.703V29.5227C134.703 26.2727 132.771 25.1591 130.953 25.1591C128.589 25.1591 127.021 27.0227 127.021 29.7045C127.021 32.3864 128.567 34.1818 131.089 34.1818ZM128.368 28.9318C128.459 27.5739 129.419 26.3636 130.953 26.3636C132.408 26.3636 133.339 27.4545 133.339 28.9318H128.368ZM142.243 30.4318C142.243 32.0682 140.993 32.8182 139.993 32.8182C138.879 32.8182 138.084 32 138.084 30.7273V25.2727H136.743V30.8182C136.743 33.0455 137.925 34.1136 139.561 34.1136C140.879 34.1136 141.743 33.4091 142.152 32.5227H142.243V34H143.584V25.2727H142.243V30.4318ZM150.54 37.2727H151.881V32.6591H151.994C152.29 33.1364 152.858 34.1818 154.54 34.1818C156.722 34.1818 158.244 32.4318 158.244 29.6591C158.244 26.9091 156.722 25.1591 154.517 25.1591C152.812 25.1591 152.29 26.2045 151.994 26.6591H151.835V25.2727H150.54V37.2727ZM151.858 29.6364C151.858 27.6818 152.722 26.3636 154.358 26.3636C156.062 26.3636 156.903 27.7955 156.903 29.6364C156.903 31.5 156.04 32.9773 154.358 32.9773C152.744 32.9773 151.858 31.6136 151.858 29.6364ZM160.29 34H161.631V28.4773C161.631 27.2955 162.562 26.4318 163.835 26.4318C164.193 26.4318 164.562 26.5 164.653 26.5227V25.1591C164.5 25.1477 164.148 25.1364 163.949 25.1364C162.903 25.1364 161.994 25.7273 161.676 26.5909H161.585V25.2727H160.29V34ZM169.523 34.1818C171.886 34.1818 173.477 32.3864 173.477 29.6818C173.477 26.9545 171.886 25.1591 169.523 25.1591C167.159 25.1591 165.568 26.9545 165.568 29.6818C165.568 32.3864 167.159 34.1818 169.523 34.1818ZM169.523 32.9773C167.727 32.9773 166.909 31.4318 166.909 29.6818C166.909 27.9318 167.727 26.3636 169.523 26.3636C171.318 26.3636 172.136 27.9318 172.136 29.6818C172.136 31.4318 171.318 32.9773 169.523 32.9773ZM175.524 25.2727V34.6364C175.524 35.5227 175.161 36.0227 174.342 36.0227H174.092V37.2727H174.365C176.047 37.2727 176.865 36.25 176.865 34.6364V25.2727H175.524ZM176.183 23.8182C176.706 23.8182 177.138 23.4091 177.138 22.9091C177.138 22.4091 176.706 22 176.183 22C175.661 22 175.229 22.4091 175.229 22.9091C175.229 23.4091 175.661 23.8182 176.183 23.8182ZM182.98 34.1818C184.753 34.1818 186.048 33.2955 186.457 31.9773L185.162 31.6136C184.821 32.5227 184.031 32.9773 182.98 32.9773C181.406 32.9773 180.321 31.9602 180.259 30.0909H186.594V29.5227C186.594 26.2727 184.662 25.1591 182.844 25.1591C180.48 25.1591 178.912 27.0227 178.912 29.7045C178.912 32.3864 180.457 34.1818 182.98 34.1818ZM180.259 28.9318C180.349 27.5739 181.31 26.3636 182.844 26.3636C184.298 26.3636 185.23 27.4545 185.23 28.9318H180.259ZM192.429 25.2727H190.565V23.1818H189.224V25.2727H187.906V26.4091H189.224V31.8636C189.224 33.3864 190.452 34.1136 191.588 34.1136C192.088 34.1136 192.406 34.0227 192.588 33.9545L192.315 32.75C192.202 32.7727 192.02 32.8182 191.724 32.8182C191.134 32.8182 190.565 32.6364 190.565 31.5V26.4091H192.429V25.2727ZM197.898 34.1818C200.261 34.1818 201.852 32.3864 201.852 29.6818C201.852 26.9545 200.261 25.1591 197.898 25.1591C195.534 25.1591 193.943 26.9545 193.943 29.6818C193.943 32.3864 195.534 34.1818 197.898 34.1818ZM197.898 32.9773C196.102 32.9773 195.284 31.4318 195.284 29.6818C195.284 27.9318 196.102 26.3636 197.898 26.3636C199.693 26.3636 200.511 27.9318 200.511 29.6818C200.511 31.4318 199.693 32.9773 197.898 32.9773Z" fill="white"/>
</svg>
