<svg width="49" height="10" viewBox="0 0 49 10" fill="none" xmlns="http://www.w3.org/2000/svg">
<path d="M0.0568182 0.272727H1.31818L4.28409 7.51705H4.38636L7.35227 0.272727H8.61364V9H7.625V2.36932H7.53977L4.8125 9H3.85795L1.13068 2.36932H1.04545V9H0.0568182V0.272727ZM15.8021 9V0.272727H21.0692V1.21023H16.8589V4.15909H20.7964V5.09659H16.8589V8.0625H21.1374V9H15.8021ZM34.6945 0.272727V9H33.6717L28.9161 2.14773H28.8308V9H27.774V0.272727H28.7967L33.5695 7.14205H33.6547V0.272727H34.6945ZM47.3364 0.272727H48.3933V6.05114C48.3933 6.70455 48.2384 7.26278 47.9288 7.72585C47.6191 8.18892 47.2072 8.54261 46.693 8.78693C46.1788 9.03125 45.6148 9.15341 45.0012 9.15341C44.3876 9.15341 43.8237 9.03125 43.3094 8.78693C42.7952 8.54261 42.3833 8.18892 42.0737 7.72585C41.764 7.26278 41.6092 6.70455 41.6092 6.05114V0.272727H42.666V6.05114C42.666 6.50568 42.7739 6.89062 42.9898 7.20597C43.2058 7.51847 43.4913 7.7571 43.8464 7.92188C44.2015 8.08381 44.5864 8.16477 45.0012 8.16477C45.416 8.16477 45.8009 8.08381 46.156 7.92188C46.5112 7.7571 46.7967 7.51847 47.0126 7.20597C47.2285 6.89062 47.3364 6.50568 47.3364 6.05114V0.272727Z" fill="white"/>
</svg>
