<svg width="96" height="48" viewBox="0 0 96 48" fill="none" xmlns="http://www.w3.org/2000/svg">
<path opacity="0.56" d="M10.7727 22C10.3409 19.6136 8.43182 18.2045 6.09091 18.2045C3.11364 18.2045 0.954545 20.5 0.954545 24.1818C0.954545 27.8636 3.11364 30.1591 6.09091 30.1591C8.43182 30.1591 10.3409 28.75 10.7727 26.3636H9.36364C9.02273 27.9773 7.63636 28.8409 6.09091 28.8409C3.97727 28.8409 2.31818 27.2045 2.31818 24.1818C2.31818 21.1591 3.97727 19.5227 6.09091 19.5227C7.63636 19.5227 9.02273 20.3864 9.36364 22H10.7727ZM16.4134 30.1818C18.777 30.1818 20.3679 28.3864 20.3679 25.6818C20.3679 22.9545 18.777 21.1591 16.4134 21.1591C14.0497 21.1591 12.4588 22.9545 12.4588 25.6818C12.4588 28.3864 14.0497 30.1818 16.4134 30.1818ZM16.4134 28.9773C14.6179 28.9773 13.7997 27.4318 13.7997 25.6818C13.7997 23.9318 14.6179 22.3636 16.4134 22.3636C18.2088 22.3636 19.027 23.9318 19.027 25.6818C19.027 27.4318 18.2088 28.9773 16.4134 28.9773ZM22.4148 30H23.7557V24.5455C23.7557 23.267 24.6875 22.3636 25.733 22.3636C26.75 22.3636 27.4602 23.0284 27.4602 24.0227V30H28.8239V24.3182C28.8239 23.1932 29.5284 22.3636 30.7557 22.3636C31.7102 22.3636 32.5284 22.8693 32.5284 24.1591V30H33.8693V24.1591C33.8693 22.108 32.767 21.1591 31.2102 21.1591C29.9602 21.1591 29.0455 21.733 28.5966 22.6364H28.5057C28.0739 21.7045 27.3125 21.1591 26.1648 21.1591C25.0284 21.1591 24.1875 21.7045 23.8239 22.6364H23.7102V21.2727H22.4148V30ZM41.821 26.4318C41.821 28.0682 40.571 28.8182 39.571 28.8182C38.4574 28.8182 37.6619 28 37.6619 26.7273V21.2727H36.321V26.8182C36.321 29.0455 37.5028 30.1136 39.1392 30.1136C40.4574 30.1136 41.321 29.4091 41.7301 28.5227H41.821V30H43.1619V21.2727H41.821V26.4318ZM46.9588 24.75C46.9588 23.2273 47.902 22.3636 49.1861 22.3636C50.4304 22.3636 51.1861 23.1761 51.1861 24.5455V30H52.527V24.4545C52.527 22.2273 51.3395 21.1591 49.5724 21.1591C48.2543 21.1591 47.4361 21.75 47.027 22.6364H46.9134V21.2727H45.6179V30H46.9588V24.75ZM54.9773 30H56.3182V21.2727H54.9773V30ZM55.6591 19.8182C56.1818 19.8182 56.6136 19.4091 56.6136 18.9091C56.6136 18.4091 56.1818 18 55.6591 18C55.1364 18 54.7045 18.4091 54.7045 18.9091C54.7045 19.4091 55.1364 19.8182 55.6591 19.8182ZM62.0696 30.1818C63.7514 30.1818 64.3196 29.1364 64.6151 28.6591H64.7741V30H66.0696V18.3636H64.7287V22.6591H64.6151C64.3196 22.2045 63.7969 21.1591 62.0923 21.1591C59.8878 21.1591 58.3651 22.9091 58.3651 25.6591C58.3651 28.4318 59.8878 30.1818 62.0696 30.1818ZM62.2514 28.9773C60.5696 28.9773 59.706 27.5 59.706 25.6364C59.706 23.7955 60.5469 22.3636 62.2514 22.3636C63.8878 22.3636 64.7514 23.6818 64.7514 25.6364C64.7514 27.6136 63.8651 28.9773 62.2514 28.9773ZM71.2798 30.2045C72.8026 30.2045 73.598 29.3864 73.8707 28.8182H73.9389V30H75.2798V24.25C75.2798 21.4773 73.1662 21.1591 72.0526 21.1591C70.7344 21.1591 69.2344 21.6136 68.5526 23.2045L69.8253 23.6591C70.1207 23.0227 70.8196 22.3409 72.098 22.3409C73.331 22.3409 73.9389 22.9943 73.9389 24.1136V24.1591C73.9389 24.8068 73.2798 24.75 71.6889 24.9545C70.0696 25.1648 68.3026 25.5227 68.3026 27.5227C68.3026 29.2273 69.6207 30.2045 71.2798 30.2045ZM71.4844 29C70.4162 29 69.6435 28.5227 69.6435 27.5909C69.6435 26.5682 70.5753 26.25 71.6207 26.1136C72.1889 26.0455 73.7116 25.8864 73.9389 25.6136V26.8409C73.9389 27.9318 73.0753 29 71.4844 29ZM81.0227 30.1818C82.7045 30.1818 83.2727 29.1364 83.5682 28.6591H83.7273V30H85.0227V18.3636H83.6818V22.6591H83.5682C83.2727 22.2045 82.75 21.1591 81.0455 21.1591C78.8409 21.1591 77.3182 22.9091 77.3182 25.6591C77.3182 28.4318 78.8409 30.1818 81.0227 30.1818ZM81.2045 28.9773C79.5227 28.9773 78.6591 27.5 78.6591 25.6364C78.6591 23.7955 79.5 22.3636 81.2045 22.3636C82.8409 22.3636 83.7045 23.6818 83.7045 25.6364C83.7045 27.6136 82.8182 28.9773 81.2045 28.9773ZM91.3239 30.1818C93.0966 30.1818 94.392 29.2955 94.8011 27.9773L93.5057 27.6136C93.1648 28.5227 92.375 28.9773 91.3239 28.9773C89.75 28.9773 88.6648 27.9602 88.6023 26.0909H94.9375V25.5227C94.9375 22.2727 93.0057 21.1591 91.1875 21.1591C88.8239 21.1591 87.2557 23.0227 87.2557 25.7045C87.2557 28.3864 88.8011 30.1818 91.3239 30.1818ZM88.6023 24.9318C88.6932 23.5739 89.6534 22.3636 91.1875 22.3636C92.642 22.3636 93.5739 23.4545 93.5739 24.9318H88.6023Z" fill="white"/>
</svg>
