<svg width="125" height="48" viewBox="0 0 125 48" fill="none" xmlns="http://www.w3.org/2000/svg">
<path d="M1.40909 30H8.52273V28.75H2.81818V24.7955H8.06818V23.5455H2.81818V19.6136H8.43182V18.3636H1.40909V30ZM14.0852 30.1818C15.767 30.1818 16.3352 29.1364 16.6307 28.6591H16.7898V30H18.0852V18.3636H16.7443V22.6591H16.6307C16.3352 22.2045 15.8125 21.1591 14.108 21.1591C11.9034 21.1591 10.3807 22.9091 10.3807 25.6591C10.3807 28.4318 11.9034 30.1818 14.0852 30.1818ZM14.267 28.9773C12.5852 28.9773 11.7216 27.5 11.7216 25.6364C11.7216 23.7955 12.5625 22.3636 14.267 22.3636C15.9034 22.3636 16.767 23.6818 16.767 25.6364C16.767 27.6136 15.8807 28.9773 14.267 28.9773ZM20.7273 30H22.0682V21.2727H20.7273V30ZM21.4091 19.8182C21.9318 19.8182 22.3636 19.4091 22.3636 18.9091C22.3636 18.4091 21.9318 18 21.4091 18C20.8864 18 20.4545 18.4091 20.4545 18.9091C20.4545 19.4091 20.8864 19.8182 21.4091 19.8182ZM28.3196 21.2727H26.456V19.1818H25.1151V21.2727H23.7969V22.4091H25.1151V27.8636C25.1151 29.3864 26.3423 30.1136 27.4787 30.1136C27.9787 30.1136 28.2969 30.0227 28.4787 29.9545L28.206 28.75C28.0923 28.7727 27.9105 28.8182 27.6151 28.8182C27.0241 28.8182 26.456 28.6364 26.456 27.5V22.4091H28.3196V21.2727ZM33.7884 30.1818C36.152 30.1818 37.7429 28.3864 37.7429 25.6818C37.7429 22.9545 36.152 21.1591 33.7884 21.1591C31.4247 21.1591 29.8338 22.9545 29.8338 25.6818C29.8338 28.3864 31.4247 30.1818 33.7884 30.1818ZM33.7884 28.9773C31.9929 28.9773 31.1747 27.4318 31.1747 25.6818C31.1747 23.9318 31.9929 22.3636 33.7884 22.3636C35.5838 22.3636 36.402 23.9318 36.402 25.6818C36.402 27.4318 35.5838 28.9773 33.7884 28.9773ZM39.7898 30H41.1307V24.4773C41.1307 23.2955 42.0625 22.4318 43.3352 22.4318C43.6932 22.4318 44.0625 22.5 44.1534 22.5227V21.1591C44 21.1477 43.6477 21.1364 43.4489 21.1364C42.4034 21.1364 41.4943 21.7273 41.1761 22.5909H41.0852V21.2727H39.7898V30ZM53.5384 30.1818C55.2202 30.1818 55.7884 29.1364 56.0838 28.6591H56.2429V30H57.5384V18.3636H56.1974V22.6591H56.0838C55.7884 22.2045 55.2656 21.1591 53.5611 21.1591C51.3565 21.1591 49.8338 22.9091 49.8338 25.6591C49.8338 28.4318 51.3565 30.1818 53.5384 30.1818ZM53.7202 28.9773C52.0384 28.9773 51.1747 27.5 51.1747 25.6364C51.1747 23.7955 52.0156 22.3636 53.7202 22.3636C55.3565 22.3636 56.2202 23.6818 56.2202 25.6364C56.2202 27.6136 55.3338 28.9773 53.7202 28.9773ZM63.8395 30.1818C65.6122 30.1818 66.9077 29.2955 67.3168 27.9773L66.0213 27.6136C65.6804 28.5227 64.8906 28.9773 63.8395 28.9773C62.2656 28.9773 61.1804 27.9602 61.1179 26.0909H67.4531V25.5227C67.4531 22.2727 65.5213 21.1591 63.7031 21.1591C61.3395 21.1591 59.7713 23.0227 59.7713 25.7045C59.7713 28.3864 61.3168 30.1818 63.8395 30.1818ZM61.1179 24.9318C61.2088 23.5739 62.169 22.3636 63.7031 22.3636C65.1577 22.3636 66.0895 23.4545 66.0895 24.9318H61.1179ZM77.5384 30.1818C79.4702 30.1818 80.7429 29 80.9702 27.4545H79.6293C79.3793 28.4091 78.5838 28.9773 77.5384 28.9773C75.9474 28.9773 74.9247 27.6591 74.9247 25.6364C74.9247 23.6591 75.9702 22.3636 77.5384 22.3636C78.7202 22.3636 79.4247 23.0909 79.6293 23.8864H80.9702C80.7429 22.25 79.3565 21.1591 77.5156 21.1591C75.152 21.1591 73.5838 23.0227 73.5838 25.6818C73.5838 28.2955 75.0838 30.1818 77.5384 30.1818ZM86.4759 30.1818C88.8395 30.1818 90.4304 28.3864 90.4304 25.6818C90.4304 22.9545 88.8395 21.1591 86.4759 21.1591C84.1122 21.1591 82.5213 22.9545 82.5213 25.6818C82.5213 28.3864 84.1122 30.1818 86.4759 30.1818ZM86.4759 28.9773C84.6804 28.9773 83.8622 27.4318 83.8622 25.6818C83.8622 23.9318 84.6804 22.3636 86.4759 22.3636C88.2713 22.3636 89.0895 23.9318 89.0895 25.6818C89.0895 27.4318 88.2713 28.9773 86.4759 28.9773ZM85.8622 20.0909H87.044L88.8168 17.4545H87.2486L85.8622 20.0909ZM95.7727 30.1818C97.4545 30.1818 98.0227 29.1364 98.3182 28.6591H98.4773V30H99.7727V18.3636H98.4318V22.6591H98.3182C98.0227 22.2045 97.5 21.1591 95.7955 21.1591C93.5909 21.1591 92.0682 22.9091 92.0682 25.6591C92.0682 28.4318 93.5909 30.1818 95.7727 30.1818ZM95.9545 28.9773C94.2727 28.9773 93.4091 27.5 93.4091 25.6364C93.4091 23.7955 94.25 22.3636 95.9545 22.3636C97.5909 22.3636 98.4545 23.6818 98.4545 25.6364C98.4545 27.6136 97.5682 28.9773 95.9545 28.9773ZM102.415 30H103.756V21.2727H102.415V30ZM103.097 19.8182C103.619 19.8182 104.051 19.4091 104.051 18.9091C104.051 18.4091 103.619 18 103.097 18C102.574 18 102.142 18.4091 102.142 18.9091C102.142 19.4091 102.574 19.8182 103.097 19.8182ZM109.734 33.4545C111.825 33.4545 113.507 32.5 113.507 30.25V21.2727H112.212V22.6591H112.075C111.78 22.2045 111.234 21.1591 109.53 21.1591C107.325 21.1591 105.803 22.9091 105.803 25.5909C105.803 28.3182 107.393 29.8636 109.507 29.8636C111.212 29.8636 111.757 28.8636 112.053 28.3864H112.166V30.1591C112.166 31.6136 111.143 32.2727 109.734 32.2727C108.149 32.2727 107.592 31.4375 107.234 30.9545L106.166 31.7045C106.712 32.6193 107.786 33.4545 109.734 33.4545ZM109.689 28.6591C108.007 28.6591 107.143 27.3864 107.143 25.5682C107.143 23.7955 107.984 22.3636 109.689 22.3636C111.325 22.3636 112.189 23.6818 112.189 25.5682C112.189 27.5 111.303 28.6591 109.689 28.6591ZM119.507 30.1818C121.871 30.1818 123.462 28.3864 123.462 25.6818C123.462 22.9545 121.871 21.1591 119.507 21.1591C117.143 21.1591 115.553 22.9545 115.553 25.6818C115.553 28.3864 117.143 30.1818 119.507 30.1818ZM119.507 28.9773C117.712 28.9773 116.893 27.4318 116.893 25.6818C116.893 23.9318 117.712 22.3636 119.507 22.3636C121.303 22.3636 122.121 23.9318 122.121 25.6818C122.121 27.4318 121.303 28.9773 119.507 28.9773Z" fill="white"/>
</svg>
