<svg width="189" height="146" viewBox="0 0 189 146" fill="none" xmlns="http://www.w3.org/2000/svg">
<path d="M1.05682 4.27273H2.31818L5.28409 11.517H5.38636L8.35227 4.27273H9.61364V13H8.625V6.36932H8.53977L5.8125 13H4.85795L2.13068 6.36932H2.04545V13H1.05682V4.27273ZM16.8021 13V4.27273H22.0692V5.21023H17.8589V8.15909H21.7964V9.09659H17.8589V12.0625H22.1374V13H16.8021ZM35.6945 4.27273V13H34.6717L29.9161 6.14773H29.8308V13H28.774V4.27273H29.7967L34.5695 11.142H34.6547V4.27273H35.6945ZM48.3364 4.27273H49.3933V10.0511C49.3933 10.7045 49.2384 11.2628 48.9288 11.7259C48.6191 12.1889 48.2072 12.5426 47.693 12.7869C47.1788 13.0313 46.6148 13.1534 46.0012 13.1534C45.3876 13.1534 44.8237 13.0313 44.3094 12.7869C43.7952 12.5426 43.3833 12.1889 43.0737 11.7259C42.764 11.2628 42.6092 10.7045 42.6092 10.0511V4.27273H43.666V10.0511C43.666 10.5057 43.7739 10.8906 43.9898 11.206C44.2058 11.5185 44.4913 11.7571 44.8464 11.9219C45.2015 12.0838 45.5864 12.1648 46.0012 12.1648C46.416 12.1648 46.8009 12.0838 47.156 11.9219C47.5112 11.7571 47.7967 11.5185 48.0126 11.206C48.2285 10.8906 48.3364 10.5057 48.3364 10.0511V4.27273Z" fill="white"/>
<rect y="34" width="48" height="48" rx="16" fill="#5081FB"/>
<path d="M22.7157 65.9832L20.8096 65.4301C20.6096 65.3739 20.4971 65.1645 20.5534 64.9645L24.8187 50.2719C24.8749 50.0719 25.0843 49.9594 25.2843 50.0157L27.1904 50.5688C27.3904 50.625 27.5029 50.8344 27.4466 51.0344L23.1813 65.727C23.1219 65.9269 22.9157 66.0426 22.7157 65.9832ZM19.1535 62.4772L20.5128 61.0273C20.6565 60.8742 20.6471 60.6305 20.4878 60.4899L17.6567 57.9994L20.4878 55.509C20.6471 55.3684 20.6596 55.1247 20.5128 54.9715L19.1535 53.5217C19.0129 53.3717 18.7754 53.3623 18.6223 53.506L14.1195 57.7245C13.9602 57.8713 13.9602 58.1244 14.1195 58.2713L18.6223 62.4928C18.7754 62.6366 19.0129 62.6303 19.1535 62.4772ZM29.3777 62.496L33.8805 58.2744C34.0398 58.1275 34.0398 57.8744 33.8805 57.7276L29.3777 53.5029C29.2277 53.3623 28.9902 53.3685 28.8465 53.5185L27.4872 54.9684C27.3435 55.1215 27.3529 55.3653 27.5122 55.5059L30.3433 57.9994L27.5122 60.4899C27.3529 60.6305 27.3404 60.8742 27.4872 61.0273L28.8465 62.4772C28.9871 62.6303 29.2246 62.6366 29.3777 62.496Z" fill="white"/>
<path d="M65.4091 64H72.5227V62.75H66.8182V58.7955H72.0682V57.5455H66.8182V53.6136H72.4318V52.3636H65.4091V64ZM78.0852 64.1818C79.767 64.1818 80.3352 63.1364 80.6307 62.6591H80.7898V64H82.0852V52.3636H80.7443V56.6591H80.6307C80.3352 56.2045 79.8125 55.1591 78.108 55.1591C75.9034 55.1591 74.3807 56.9091 74.3807 59.6591C74.3807 62.4318 75.9034 64.1818 78.0852 64.1818ZM78.267 62.9773C76.5852 62.9773 75.7216 61.5 75.7216 59.6364C75.7216 57.7955 76.5625 56.3636 78.267 56.3636C79.9034 56.3636 80.767 57.6818 80.767 59.6364C80.767 61.6136 79.8807 62.9773 78.267 62.9773ZM84.7273 64H86.0682V55.2727H84.7273V64ZM85.4091 53.8182C85.9318 53.8182 86.3636 53.4091 86.3636 52.9091C86.3636 52.4091 85.9318 52 85.4091 52C84.8864 52 84.4545 52.4091 84.4545 52.9091C84.4545 53.4091 84.8864 53.8182 85.4091 53.8182ZM92.3196 55.2727H90.456V53.1818H89.1151V55.2727H87.7969V56.4091H89.1151V61.8636C89.1151 63.3864 90.3423 64.1136 91.4787 64.1136C91.9787 64.1136 92.2969 64.0227 92.4787 63.9545L92.206 62.75C92.0923 62.7727 91.9105 62.8182 91.6151 62.8182C91.0241 62.8182 90.456 62.6364 90.456 61.5V56.4091H92.3196V55.2727ZM97.7884 64.1818C100.152 64.1818 101.743 62.3864 101.743 59.6818C101.743 56.9545 100.152 55.1591 97.7884 55.1591C95.4247 55.1591 93.8338 56.9545 93.8338 59.6818C93.8338 62.3864 95.4247 64.1818 97.7884 64.1818ZM97.7884 62.9773C95.9929 62.9773 95.1747 61.4318 95.1747 59.6818C95.1747 57.9318 95.9929 56.3636 97.7884 56.3636C99.5838 56.3636 100.402 57.9318 100.402 59.6818C100.402 61.4318 99.5838 62.9773 97.7884 62.9773ZM103.79 64H105.131V58.4773C105.131 57.2955 106.062 56.4318 107.335 56.4318C107.693 56.4318 108.062 56.5 108.153 56.5227V55.1591C108 55.1477 107.648 55.1364 107.449 55.1364C106.403 55.1364 105.494 55.7273 105.176 56.5909H105.085V55.2727H103.79V64ZM117.538 64.1818C119.22 64.1818 119.788 63.1364 120.084 62.6591H120.243V64H121.538V52.3636H120.197V56.6591H120.084C119.788 56.2045 119.266 55.1591 117.561 55.1591C115.357 55.1591 113.834 56.9091 113.834 59.6591C113.834 62.4318 115.357 64.1818 117.538 64.1818ZM117.72 62.9773C116.038 62.9773 115.175 61.5 115.175 59.6364C115.175 57.7955 116.016 56.3636 117.72 56.3636C119.357 56.3636 120.22 57.6818 120.22 59.6364C120.22 61.6136 119.334 62.9773 117.72 62.9773ZM127.839 64.1818C129.612 64.1818 130.908 63.2955 131.317 61.9773L130.021 61.6136C129.68 62.5227 128.891 62.9773 127.839 62.9773C126.266 62.9773 125.18 61.9602 125.118 60.0909H131.453V59.5227C131.453 56.2727 129.521 55.1591 127.703 55.1591C125.339 55.1591 123.771 57.0227 123.771 59.7045C123.771 62.3864 125.317 64.1818 127.839 64.1818ZM125.118 58.9318C125.209 57.5739 126.169 56.3636 127.703 56.3636C129.158 56.3636 130.089 57.4545 130.089 58.9318H125.118ZM141.538 64.1818C143.47 64.1818 144.743 63 144.97 61.4545H143.629C143.379 62.4091 142.584 62.9773 141.538 62.9773C139.947 62.9773 138.925 61.6591 138.925 59.6364C138.925 57.6591 139.97 56.3636 141.538 56.3636C142.72 56.3636 143.425 57.0909 143.629 57.8864H144.97C144.743 56.25 143.357 55.1591 141.516 55.1591C139.152 55.1591 137.584 57.0227 137.584 59.6818C137.584 62.2955 139.084 64.1818 141.538 64.1818ZM150.476 64.1818C152.839 64.1818 154.43 62.3864 154.43 59.6818C154.43 56.9545 152.839 55.1591 150.476 55.1591C148.112 55.1591 146.521 56.9545 146.521 59.6818C146.521 62.3864 148.112 64.1818 150.476 64.1818ZM150.476 62.9773C148.68 62.9773 147.862 61.4318 147.862 59.6818C147.862 57.9318 148.68 56.3636 150.476 56.3636C152.271 56.3636 153.089 57.9318 153.089 59.6818C153.089 61.4318 152.271 62.9773 150.476 62.9773ZM149.862 54.0909H151.044L152.817 51.4545H151.249L149.862 54.0909ZM159.773 64.1818C161.455 64.1818 162.023 63.1364 162.318 62.6591H162.477V64H163.773V52.3636H162.432V56.6591H162.318C162.023 56.2045 161.5 55.1591 159.795 55.1591C157.591 55.1591 156.068 56.9091 156.068 59.6591C156.068 62.4318 157.591 64.1818 159.773 64.1818ZM159.955 62.9773C158.273 62.9773 157.409 61.5 157.409 59.6364C157.409 57.7955 158.25 56.3636 159.955 56.3636C161.591 56.3636 162.455 57.6818 162.455 59.6364C162.455 61.6136 161.568 62.9773 159.955 62.9773ZM166.415 64H167.756V55.2727H166.415V64ZM167.097 53.8182C167.619 53.8182 168.051 53.4091 168.051 52.9091C168.051 52.4091 167.619 52 167.097 52C166.574 52 166.142 52.4091 166.142 52.9091C166.142 53.4091 166.574 53.8182 167.097 53.8182ZM173.734 67.4545C175.825 67.4545 177.507 66.5 177.507 64.25V55.2727H176.212V56.6591H176.075C175.78 56.2045 175.234 55.1591 173.53 55.1591C171.325 55.1591 169.803 56.9091 169.803 59.5909C169.803 62.3182 171.393 63.8636 173.507 63.8636C175.212 63.8636 175.757 62.8636 176.053 62.3864H176.166V64.1591C176.166 65.6136 175.143 66.2727 173.734 66.2727C172.149 66.2727 171.592 65.4375 171.234 64.9545L170.166 65.7045C170.712 66.6193 171.786 67.4545 173.734 67.4545ZM173.689 62.6591C172.007 62.6591 171.143 61.3864 171.143 59.5682C171.143 57.7955 171.984 56.3636 173.689 56.3636C175.325 56.3636 176.189 57.6818 176.189 59.5682C176.189 61.5 175.303 62.6591 173.689 62.6591ZM183.507 64.1818C185.871 64.1818 187.462 62.3864 187.462 59.6818C187.462 56.9545 185.871 55.1591 183.507 55.1591C181.143 55.1591 179.553 56.9545 179.553 59.6818C179.553 62.3864 181.143 64.1818 183.507 64.1818ZM183.507 62.9773C181.712 62.9773 180.893 61.4318 180.893 59.6818C180.893 57.9318 181.712 56.3636 183.507 56.3636C185.303 56.3636 186.121 57.9318 186.121 59.6818C186.121 61.4318 185.303 62.9773 183.507 62.9773Z" fill="white"/>
<rect y="98" width="48" height="48" rx="16" fill="#5081FB" fill-opacity="0.16"/>
<g opacity="0.48">
<path d="M17 121C18.1031 121 19 120.103 19 119C19 117.897 18.1031 117 17 117C15.8969 117 15 117.897 15 119C15 120.103 15.8969 121 17 121ZM31 121C32.1031 121 33 120.103 33 119C33 117.897 32.1031 117 31 117C29.8969 117 29 117.897 29 119C29 120.103 29.8969 121 31 121ZM32 122H30C29.45 122 28.9531 122.222 28.5906 122.581C29.85 123.272 30.7437 124.519 30.9375 126H33C33.5531 126 34 125.553 34 125V124C34 122.897 33.1031 122 32 122ZM24 122C25.9344 122 27.5 120.434 27.5 118.5C27.5 116.566 25.9344 115 24 115C22.0656 115 20.5 116.566 20.5 118.5C20.5 120.434 22.0656 122 24 122ZM26.4 123H26.1406C25.4906 123.312 24.7688 123.5 24 123.5C23.2312 123.5 22.5125 123.312 21.8594 123H21.6C19.6125 123 18 124.613 18 126.6V127.5C18 128.328 18.6719 129 19.5 129H28.5C29.3281 129 30 128.328 30 127.5V126.6C30 124.613 28.3875 123 26.4 123ZM19.4094 122.581C19.0469 122.222 18.55 122 18 122H16C14.8969 122 14 122.897 14 124V125C14 125.553 14.4469 126 15 126H17.0594C17.2563 124.519 18.15 123.272 19.4094 122.581Z" fill="white"/>
</g>
<path opacity="0.56" d="M74.7727 120C74.3409 117.614 72.4318 116.205 70.0909 116.205C67.1136 116.205 64.9545 118.5 64.9545 122.182C64.9545 125.864 67.1136 128.159 70.0909 128.159C72.4318 128.159 74.3409 126.75 74.7727 124.364H73.3636C73.0227 125.977 71.6364 126.841 70.0909 126.841C67.9773 126.841 66.3182 125.205 66.3182 122.182C66.3182 119.159 67.9773 117.523 70.0909 117.523C71.6364 117.523 73.0227 118.386 73.3636 120H74.7727ZM80.4134 128.182C82.777 128.182 84.3679 126.386 84.3679 123.682C84.3679 120.955 82.777 119.159 80.4134 119.159C78.0497 119.159 76.4588 120.955 76.4588 123.682C76.4588 126.386 78.0497 128.182 80.4134 128.182ZM80.4134 126.977C78.6179 126.977 77.7997 125.432 77.7997 123.682C77.7997 121.932 78.6179 120.364 80.4134 120.364C82.2088 120.364 83.027 121.932 83.027 123.682C83.027 125.432 82.2088 126.977 80.4134 126.977ZM86.4148 128H87.7557V122.545C87.7557 121.267 88.6875 120.364 89.733 120.364C90.75 120.364 91.4602 121.028 91.4602 122.023V128H92.8239V122.318C92.8239 121.193 93.5284 120.364 94.7557 120.364C95.7102 120.364 96.5284 120.869 96.5284 122.159V128H97.8693V122.159C97.8693 120.108 96.767 119.159 95.2102 119.159C93.9602 119.159 93.0455 119.733 92.5966 120.636H92.5057C92.0739 119.705 91.3125 119.159 90.1648 119.159C89.0284 119.159 88.1875 119.705 87.8239 120.636H87.7102V119.273H86.4148V128ZM105.821 124.432C105.821 126.068 104.571 126.818 103.571 126.818C102.457 126.818 101.662 126 101.662 124.727V119.273H100.321V124.818C100.321 127.045 101.503 128.114 103.139 128.114C104.457 128.114 105.321 127.409 105.73 126.523H105.821V128H107.162V119.273H105.821V124.432ZM110.959 122.75C110.959 121.227 111.902 120.364 113.186 120.364C114.43 120.364 115.186 121.176 115.186 122.545V128H116.527V122.455C116.527 120.227 115.339 119.159 113.572 119.159C112.254 119.159 111.436 119.75 111.027 120.636H110.913V119.273H109.618V128H110.959V122.75ZM118.977 128H120.318V119.273H118.977V128ZM119.659 117.818C120.182 117.818 120.614 117.409 120.614 116.909C120.614 116.409 120.182 116 119.659 116C119.136 116 118.705 116.409 118.705 116.909C118.705 117.409 119.136 117.818 119.659 117.818ZM126.07 128.182C127.751 128.182 128.32 127.136 128.615 126.659H128.774V128H130.07V116.364H128.729V120.659H128.615C128.32 120.205 127.797 119.159 126.092 119.159C123.888 119.159 122.365 120.909 122.365 123.659C122.365 126.432 123.888 128.182 126.07 128.182ZM126.251 126.977C124.57 126.977 123.706 125.5 123.706 123.636C123.706 121.795 124.547 120.364 126.251 120.364C127.888 120.364 128.751 121.682 128.751 123.636C128.751 125.614 127.865 126.977 126.251 126.977ZM135.28 128.205C136.803 128.205 137.598 127.386 137.871 126.818H137.939V128H139.28V122.25C139.28 119.477 137.166 119.159 136.053 119.159C134.734 119.159 133.234 119.614 132.553 121.205L133.825 121.659C134.121 121.023 134.82 120.341 136.098 120.341C137.331 120.341 137.939 120.994 137.939 122.114V122.159C137.939 122.807 137.28 122.75 135.689 122.955C134.07 123.165 132.303 123.523 132.303 125.523C132.303 127.227 133.621 128.205 135.28 128.205ZM135.484 127C134.416 127 133.643 126.523 133.643 125.591C133.643 124.568 134.575 124.25 135.621 124.114C136.189 124.045 137.712 123.886 137.939 123.614V124.841C137.939 125.932 137.075 127 135.484 127ZM145.023 128.182C146.705 128.182 147.273 127.136 147.568 126.659H147.727V128H149.023V116.364H147.682V120.659H147.568C147.273 120.205 146.75 119.159 145.045 119.159C142.841 119.159 141.318 120.909 141.318 123.659C141.318 126.432 142.841 128.182 145.023 128.182ZM145.205 126.977C143.523 126.977 142.659 125.5 142.659 123.636C142.659 121.795 143.5 120.364 145.205 120.364C146.841 120.364 147.705 121.682 147.705 123.636C147.705 125.614 146.818 126.977 145.205 126.977ZM155.324 128.182C157.097 128.182 158.392 127.295 158.801 125.977L157.506 125.614C157.165 126.523 156.375 126.977 155.324 126.977C153.75 126.977 152.665 125.96 152.602 124.091H158.938V123.523C158.938 120.273 157.006 119.159 155.188 119.159C152.824 119.159 151.256 121.023 151.256 123.705C151.256 126.386 152.801 128.182 155.324 128.182ZM152.602 122.932C152.693 121.574 153.653 120.364 155.188 120.364C156.642 120.364 157.574 121.455 157.574 122.932H152.602Z" fill="white"/>
</svg>
