<svg width="272" height="56" viewBox="0 0 272 56" fill="none" xmlns="http://www.w3.org/2000/svg">
<rect width="272" height="56" rx="8" fill="white" fill-opacity="0.16"/>
<path opacity="0.64" d="M24.6364 22.3636H23.25V31.5227H23.1364L16.7727 22.3636H15.4091V34H16.8182V24.8636H16.9318L23.2727 34H24.6364V22.3636ZM30.8196 34.1818C33.1832 34.1818 34.7741 32.3864 34.7741 29.6818C34.7741 26.9545 33.1832 25.1591 30.8196 25.1591C28.456 25.1591 26.8651 26.9545 26.8651 29.6818C26.8651 32.3864 28.456 34.1818 30.8196 34.1818ZM30.8196 32.9773C29.0241 32.9773 28.206 31.4318 28.206 29.6818C28.206 27.9318 29.0241 26.3636 30.8196 26.3636C32.6151 26.3636 33.4332 27.9318 33.4332 29.6818C33.4332 31.4318 32.6151 32.9773 30.8196 32.9773ZM36.821 34H38.1619V28.5455C38.1619 27.267 39.0938 26.3636 40.1392 26.3636C41.1562 26.3636 41.8665 27.0284 41.8665 28.0227V34H43.2301V28.3182C43.2301 27.1932 43.9347 26.3636 45.1619 26.3636C46.1165 26.3636 46.9347 26.8693 46.9347 28.1591V34H48.2756V28.1591C48.2756 26.108 47.1733 25.1591 45.6165 25.1591C44.3665 25.1591 43.4517 25.733 43.0028 26.6364H42.9119C42.4801 25.7045 41.7188 25.1591 40.571 25.1591C39.4347 25.1591 38.5938 25.7045 38.2301 26.6364H38.1165V25.2727H36.821V34ZM54.3864 34.1818C56.1591 34.1818 57.4545 33.2955 57.8636 31.9773L56.5682 31.6136C56.2273 32.5227 55.4375 32.9773 54.3864 32.9773C52.8125 32.9773 51.7273 31.9602 51.6648 30.0909H58V29.5227C58 26.2727 56.0682 25.1591 54.25 25.1591C51.8864 25.1591 50.3182 27.0227 50.3182 29.7045C50.3182 32.3864 51.8636 34.1818 54.3864 34.1818ZM51.6648 28.9318C51.7557 27.5739 52.7159 26.3636 54.25 26.3636C55.7045 26.3636 56.6364 27.4545 56.6364 28.9318H51.6648ZM67.8352 34.1818C69.517 34.1818 70.0852 33.1364 70.3807 32.6591H70.5398V34H71.8352V22.3636H70.4943V26.6591H70.3807C70.0852 26.2045 69.5625 25.1591 67.858 25.1591C65.6534 25.1591 64.1307 26.9091 64.1307 29.6591C64.1307 32.4318 65.6534 34.1818 67.8352 34.1818ZM68.017 32.9773C66.3352 32.9773 65.4716 31.5 65.4716 29.6364C65.4716 27.7955 66.3125 26.3636 68.017 26.3636C69.6534 26.3636 70.517 27.6818 70.517 29.6364C70.517 31.6136 69.6307 32.9773 68.017 32.9773ZM78.0227 34.1818C80.3864 34.1818 81.9773 32.3864 81.9773 29.6818C81.9773 26.9545 80.3864 25.1591 78.0227 25.1591C75.6591 25.1591 74.0682 26.9545 74.0682 29.6818C74.0682 32.3864 75.6591 34.1818 78.0227 34.1818ZM78.0227 32.9773C76.2273 32.9773 75.4091 31.4318 75.4091 29.6818C75.4091 27.9318 76.2273 26.3636 78.0227 26.3636C79.8182 26.3636 80.6364 27.9318 80.6364 29.6818C80.6364 31.4318 79.8182 32.9773 78.0227 32.9773ZM94.706 27.2273C94.2855 25.9886 93.3423 25.1591 91.6151 25.1591C89.7741 25.1591 88.4105 26.2045 88.4105 27.6818C88.4105 28.8864 89.1264 29.6932 90.7287 30.0682L92.1832 30.4091C93.0639 30.6136 93.4787 31.0341 93.4787 31.6364C93.4787 32.3864 92.6832 33 91.4332 33C90.3366 33 89.6491 32.5284 89.4105 31.5909L88.1378 31.9091C88.4503 33.392 89.6719 34.1818 91.456 34.1818C93.4844 34.1818 94.8651 33.0739 94.8651 31.5682C94.8651 30.3523 94.1037 29.5852 92.5469 29.2045L91.2514 28.8864C90.2173 28.6307 89.7514 28.2841 89.7514 27.6136C89.7514 26.8636 90.5469 26.3182 91.6151 26.3182C92.7855 26.3182 93.2685 26.9659 93.5014 27.5682L94.706 27.2273ZM100.543 34.1818C102.315 34.1818 103.611 33.2955 104.02 31.9773L102.724 31.6136C102.384 32.5227 101.594 32.9773 100.543 32.9773C98.9688 32.9773 97.8835 31.9602 97.821 30.0909H104.156V29.5227C104.156 26.2727 102.224 25.1591 100.406 25.1591C98.0426 25.1591 96.4744 27.0227 96.4744 29.7045C96.4744 32.3864 98.0199 34.1818 100.543 34.1818ZM97.821 28.9318C97.9119 27.5739 98.8722 26.3636 100.406 26.3636C101.861 26.3636 102.793 27.4545 102.793 28.9318H97.821ZM111.696 30.4318C111.696 32.0682 110.446 32.8182 109.446 32.8182C108.332 32.8182 107.537 32 107.537 30.7273V25.2727H106.196V30.8182C106.196 33.0455 107.378 34.1136 109.014 34.1136C110.332 34.1136 111.196 33.4091 111.605 32.5227H111.696V34H113.037V25.2727H111.696V30.4318ZM119.993 37.2727H121.334V32.6591H121.447C121.743 33.1364 122.311 34.1818 123.993 34.1818C126.175 34.1818 127.697 32.4318 127.697 29.6591C127.697 26.9091 126.175 25.1591 123.97 25.1591C122.266 25.1591 121.743 26.2045 121.447 26.6591H121.288V25.2727H119.993V37.2727ZM121.311 29.6364C121.311 27.6818 122.175 26.3636 123.811 26.3636C125.516 26.3636 126.357 27.7955 126.357 29.6364C126.357 31.5 125.493 32.9773 123.811 32.9773C122.197 32.9773 121.311 31.6136 121.311 29.6364ZM129.743 34H131.084V28.4773C131.084 27.2955 132.016 26.4318 133.288 26.4318C133.646 26.4318 134.016 26.5 134.107 26.5227V25.1591C133.953 25.1477 133.601 25.1364 133.402 25.1364C132.357 25.1364 131.447 25.7273 131.129 26.5909H131.038V25.2727H129.743V34ZM138.976 34.1818C141.339 34.1818 142.93 32.3864 142.93 29.6818C142.93 26.9545 141.339 25.1591 138.976 25.1591C136.612 25.1591 135.021 26.9545 135.021 29.6818C135.021 32.3864 136.612 34.1818 138.976 34.1818ZM138.976 32.9773C137.18 32.9773 136.362 31.4318 136.362 29.6818C136.362 27.9318 137.18 26.3636 138.976 26.3636C140.771 26.3636 141.589 27.9318 141.589 29.6818C141.589 31.4318 140.771 32.9773 138.976 32.9773ZM144.977 25.2727V34.6364C144.977 35.5227 144.614 36.0227 143.795 36.0227H143.545V37.2727H143.818C145.5 37.2727 146.318 36.25 146.318 34.6364V25.2727H144.977ZM145.636 23.8182C146.159 23.8182 146.591 23.4091 146.591 22.9091C146.591 22.4091 146.159 22 145.636 22C145.114 22 144.682 22.4091 144.682 22.9091C144.682 23.4091 145.114 23.8182 145.636 23.8182ZM152.433 34.1818C154.206 34.1818 155.501 33.2955 155.911 31.9773L154.615 31.6136C154.274 32.5227 153.484 32.9773 152.433 32.9773C150.859 32.9773 149.774 31.9602 149.712 30.0909H156.047V29.5227C156.047 26.2727 154.115 25.1591 152.297 25.1591C149.933 25.1591 148.365 27.0227 148.365 29.7045C148.365 32.3864 149.911 34.1818 152.433 34.1818ZM149.712 28.9318C149.803 27.5739 150.763 26.3636 152.297 26.3636C153.751 26.3636 154.683 27.4545 154.683 28.9318H149.712ZM161.882 25.2727H160.018V23.1818H158.678V25.2727H157.359V26.4091H158.678V31.8636C158.678 33.3864 159.905 34.1136 161.041 34.1136C161.541 34.1136 161.859 34.0227 162.041 33.9545L161.768 32.75C161.655 32.7727 161.473 32.8182 161.178 32.8182C160.587 32.8182 160.018 32.6364 160.018 31.5V26.4091H161.882V25.2727ZM167.351 34.1818C169.714 34.1818 171.305 32.3864 171.305 29.6818C171.305 26.9545 169.714 25.1591 167.351 25.1591C164.987 25.1591 163.396 26.9545 163.396 29.6818C163.396 32.3864 164.987 34.1818 167.351 34.1818ZM167.351 32.9773C165.555 32.9773 164.737 31.4318 164.737 29.6818C164.737 27.9318 165.555 26.3636 167.351 26.3636C169.146 26.3636 169.964 27.9318 169.964 29.6818C169.964 31.4318 169.146 32.9773 167.351 32.9773Z" fill="white"/>
</svg>
