<svg width="168" height="15" viewBox="0 0 168 15" fill="none" xmlns="http://www.w3.org/2000/svg">
<path d="M0.0568182 12V3.27273H3.00568C3.69034 3.27273 4.25 3.39631 4.68466 3.64347C5.12216 3.88778 5.44602 4.21875 5.65625 4.63636C5.86648 5.05398 5.97159 5.51989 5.97159 6.03409C5.97159 6.5483 5.86648 7.01562 5.65625 7.43608C5.44886 7.85653 5.12784 8.19176 4.69318 8.44176C4.25852 8.68892 3.7017 8.8125 3.02273 8.8125H1.11364V12H0.0568182ZM1.11364 7.875H2.98864C3.69034 7.875 4.18892 7.69886 4.48438 7.34659C4.78267 6.99432 4.93182 6.55682 4.93182 6.03409C4.93182 5.50852 4.78267 5.07386 4.48438 4.73011C4.18608 4.38352 3.68182 4.21023 2.97159 4.21023H1.11364V7.875ZM12.474 12V3.27273H17.7411V4.21023H13.5308V7.15909H17.4683V8.09659H13.5308V11.0625H17.8092V12H12.474ZM24.4459 12V3.27273H27.3947C28.0766 3.27273 28.6362 3.3892 29.0737 3.62216C29.5112 3.85227 29.8351 4.16903 30.0453 4.57244C30.2555 4.97585 30.3607 5.43466 30.3607 5.94886C30.3607 6.52841 30.2271 7.03409 29.9601 7.46591C29.6959 7.89489 29.2854 8.20455 28.7286 8.39489L30.7016 12H29.4743L27.6334 8.58665C27.5624 8.58949 27.4885 8.59091 27.4118 8.59091H25.5027V12H24.4459ZM25.5027 7.63636H27.3777C28.0766 7.63636 28.5751 7.4858 28.8734 7.18466C29.1717 6.88352 29.3209 6.47159 29.3209 5.94886C29.3209 5.4233 29.1703 5.00284 28.8692 4.6875C28.5709 4.36932 28.068 4.21023 27.3607 4.21023H25.5027V7.63636ZM41.6944 5.45455C41.6433 5.02273 41.4359 4.6875 41.0722 4.44886C40.7086 4.21023 40.2626 4.09091 39.7342 4.09091C39.1546 4.09091 38.6887 4.22869 38.3364 4.50426C37.9842 4.77699 37.808 5.12216 37.808 5.53977C37.808 5.85227 37.9032 6.10511 38.0935 6.2983C38.2867 6.48864 38.514 6.63778 38.7754 6.74574C39.0396 6.85085 39.2796 6.93182 39.4955 6.98864L40.3819 7.22727C40.6092 7.28693 40.862 7.36932 41.1404 7.47443C41.4217 7.57955 41.6901 7.72301 41.9458 7.90483C42.2043 8.08381 42.4174 8.31392 42.585 8.59517C42.7526 8.87642 42.8364 9.22159 42.8364 9.63068C42.8364 10.1023 42.7129 10.5284 42.4657 10.9091C42.2214 11.2898 41.8634 11.5923 41.3918 11.8168C40.9231 12.0412 40.3535 12.1534 39.683 12.1534C38.7455 12.1534 38.0012 11.9318 37.4501 11.4886C36.8989 11.0455 36.5978 10.4659 36.5467 9.75H37.6376C37.666 10.0795 37.7768 10.3523 37.97 10.5682C38.166 10.7812 38.4131 10.9403 38.7114 11.0455C39.0126 11.1477 39.3364 11.1989 39.683 11.1989C40.0864 11.1989 40.4487 11.1335 40.7697 11.0028C41.0907 10.8693 41.345 10.6847 41.5325 10.4489C41.72 10.2102 41.8137 9.93182 41.8137 9.61364C41.8137 9.32386 41.7327 9.08807 41.5708 8.90625C41.4089 8.72443 41.1958 8.5767 40.9316 8.46307C40.6674 8.34943 40.3819 8.25 40.0751 8.16477L39.0012 7.85795C38.3194 7.66193 37.7796 7.3821 37.3819 7.01847C36.9842 6.65483 36.7853 6.17898 36.7853 5.59091C36.7853 5.10227 36.9174 4.67614 37.1816 4.3125C37.4487 3.94602 37.8066 3.66193 38.2555 3.46023C38.7072 3.25568 39.2114 3.15341 39.7683 3.15341C40.3308 3.15341 40.8308 3.25426 41.2683 3.45597C41.7058 3.65483 42.0523 3.92756 42.308 4.27415C42.5666 4.62074 42.7029 5.0142 42.7171 5.45455H41.6944ZM56.7376 7.63636C56.7376 8.55682 56.5714 9.35227 56.2391 10.0227C55.9067 10.6932 55.4507 11.2102 54.8712 11.5739C54.2916 11.9375 53.6297 12.1193 52.8854 12.1193C52.1411 12.1193 51.4791 11.9375 50.8996 11.5739C50.32 11.2102 49.8641 10.6932 49.5317 10.0227C49.1993 9.35227 49.0331 8.55682 49.0331 7.63636C49.0331 6.71591 49.1993 5.92045 49.5317 5.25C49.8641 4.57955 50.32 4.0625 50.8996 3.69886C51.4791 3.33523 52.1411 3.15341 52.8854 3.15341C53.6297 3.15341 54.2916 3.33523 54.8712 3.69886C55.4507 4.0625 55.9067 4.57955 56.2391 5.25C56.5714 5.92045 56.7376 6.71591 56.7376 7.63636ZM55.7149 7.63636C55.7149 6.88068 55.5885 6.2429 55.3357 5.72301C55.0857 5.20312 54.7462 4.80966 54.3172 4.54261C53.8911 4.27557 53.4138 4.14205 52.8854 4.14205C52.357 4.14205 51.8783 4.27557 51.4493 4.54261C51.0232 4.80966 50.6837 5.20312 50.4308 5.72301C50.1808 6.2429 50.0558 6.88068 50.0558 7.63636C50.0558 8.39205 50.1808 9.02983 50.4308 9.54972C50.6837 10.0696 51.0232 10.4631 51.4493 10.7301C51.8783 10.9972 52.357 11.1307 52.8854 11.1307C53.4138 11.1307 53.8911 10.9972 54.3172 10.7301C54.7462 10.4631 55.0857 10.0696 55.3357 9.54972C55.5885 9.02983 55.7149 8.39205 55.7149 7.63636ZM70.2351 3.27273V12H69.2124L64.4567 5.14773H64.3714V12H63.3146V3.27273H64.3374L69.1101 10.142H69.1953V3.27273H70.2351ZM77.5077 12H76.3998L79.6043 3.27273H80.6952L83.8998 12H82.7918L81.914 9.52841H78.3856L77.5077 12ZM78.718 8.59091H81.5816L80.1839 4.65341H80.1157L78.718 8.59091ZM90.0592 12V3.27273H91.116V11.0625H95.1728V12H90.0592ZM102.666 3.27273V12H101.609V3.27273H102.666ZM109.295 12V11.233L114 4.21023H109.244V3.27273H115.261V4.03977L110.557 11.0625H115.312V12H109.295ZM122.243 12H121.135L124.339 3.27273H125.43L128.635 12H127.527L126.649 9.52841H123.121L122.243 12ZM123.453 8.59091H126.317L124.919 4.65341H124.851L123.453 8.59091ZM141.407 6H140.35C140.265 5.59659 140.101 5.2571 139.86 4.98153C139.619 4.70597 139.327 4.49716 138.986 4.35511C138.646 4.21307 138.282 4.14205 137.896 4.14205C137.367 4.14205 136.888 4.27557 136.459 4.54261C136.033 4.80966 135.694 5.20312 135.441 5.72301C135.191 6.2429 135.066 6.88068 135.066 7.63636C135.066 8.39205 135.191 9.02983 135.441 9.54972C135.694 10.0696 136.033 10.4631 136.459 10.7301C136.888 10.9972 137.367 11.1307 137.896 11.1307C138.282 11.1307 138.646 11.0597 138.986 10.9176C139.327 10.7756 139.619 10.5668 139.86 10.2912C140.101 10.0156 140.265 9.67614 140.35 9.27273H141.407C141.299 9.86932 141.079 10.3807 140.746 10.8068C140.414 11.2301 140.002 11.5554 139.511 11.7827C139.019 12.0071 138.481 12.1193 137.896 12.1193C137.151 12.1193 136.489 11.9375 135.91 11.5739C135.33 11.2102 134.874 10.6932 134.542 10.0227C134.209 9.35227 134.043 8.55682 134.043 7.63636C134.043 6.71591 134.209 5.92045 134.542 5.25C134.874 4.57955 135.33 4.0625 135.91 3.69886C136.489 3.33523 137.151 3.15341 137.896 3.15341C138.481 3.15341 139.019 3.26705 139.511 3.49432C140.002 3.71875 140.414 4.04403 140.746 4.47017C141.079 4.89347 141.299 5.40341 141.407 6ZM137.452 12.0341H138.288L138.219 12.375C138.441 12.4091 138.644 12.5014 138.829 12.652C139.013 12.8054 139.106 13.0483 139.106 13.3807C139.106 13.7472 138.954 14.0455 138.65 14.2756C138.349 14.5085 137.904 14.625 137.316 14.625L137.282 13.9602C137.546 13.9602 137.765 13.9176 137.938 13.8324C138.114 13.75 138.202 13.6108 138.202 13.4148C138.202 13.2188 138.13 13.0852 137.985 13.0142C137.84 12.9432 137.606 12.8949 137.282 12.8693L137.452 12.0341ZM148.273 12H147.165L150.369 3.27273H151.46L154.665 12H153.557L152.679 9.52841H149.15L148.273 12ZM149.483 8.59091H152.346L150.949 4.65341H150.881L149.483 8.59091ZM149.602 2.40341L148.818 2.36932C148.818 1.93466 148.942 1.57955 149.189 1.30398C149.439 1.02557 149.747 0.886364 150.114 0.886364C150.329 0.886364 150.514 0.931818 150.667 1.02273C150.824 1.11364 150.977 1.20455 151.128 1.29545C151.281 1.38636 151.46 1.43182 151.665 1.43182C151.827 1.43182 151.963 1.36932 152.074 1.24432C152.187 1.11648 152.244 0.963068 152.244 0.784091L153.011 0.852272C153.011 1.29545 152.886 1.64773 152.636 1.90909C152.389 2.17045 152.082 2.30114 151.716 2.30114C151.52 2.30114 151.358 2.27415 151.23 2.22017C151.102 2.16335 150.989 2.09943 150.889 2.02841C150.79 1.95739 150.685 1.89489 150.574 1.84091C150.463 1.78409 150.327 1.75568 150.165 1.75568C150.003 1.75568 149.868 1.8196 149.76 1.94744C149.655 2.07244 149.602 2.22443 149.602 2.40341ZM167.777 7.63636C167.777 8.55682 167.611 9.35227 167.279 10.0227C166.947 10.6932 166.491 11.2102 165.911 11.5739C165.331 11.9375 164.67 12.1193 163.925 12.1193C163.181 12.1193 162.519 11.9375 161.939 11.5739C161.36 11.2102 160.904 10.6932 160.572 10.0227C160.239 9.35227 160.073 8.55682 160.073 7.63636C160.073 6.71591 160.239 5.92045 160.572 5.25C160.904 4.57955 161.36 4.0625 161.939 3.69886C162.519 3.33523 163.181 3.15341 163.925 3.15341C164.67 3.15341 165.331 3.33523 165.911 3.69886C166.491 4.0625 166.947 4.57955 167.279 5.25C167.611 5.92045 167.777 6.71591 167.777 7.63636ZM166.755 7.63636C166.755 6.88068 166.628 6.2429 166.376 5.72301C166.126 5.20312 165.786 4.80966 165.357 4.54261C164.931 4.27557 164.454 4.14205 163.925 4.14205C163.397 4.14205 162.918 4.27557 162.489 4.54261C162.063 4.80966 161.724 5.20312 161.471 5.72301C161.221 6.2429 161.096 6.88068 161.096 7.63636C161.096 8.39205 161.221 9.02983 161.471 9.54972C161.724 10.0696 162.063 10.4631 162.489 10.7301C162.918 10.9972 163.397 11.1307 163.925 11.1307C164.454 11.1307 164.931 10.9972 165.357 10.7301C165.786 10.4631 166.126 10.0696 166.376 9.54972C166.628 9.02983 166.755 8.39205 166.755 7.63636Z" fill="white"/>
</svg>
