<svg width="272" height="56" viewBox="0 0 272 56" fill="none" xmlns="http://www.w3.org/2000/svg">
<rect width="272" height="56" rx="8" fill="white" fill-opacity="0.16"/>
<path opacity="0.64" d="M19.8636 22.3636V30.6818C19.8636 32.1307 19.1705 32.9091 17.9545 32.9091C16.8466 32.9091 16.0455 32.2614 16.0455 31.2727H14.6591C14.6591 33.0625 16.0455 34.1591 17.9545 34.1591C19.9773 34.1591 21.2727 32.9148 21.2727 30.6818V22.3636H19.8636ZM26.483 34.2045C28.0057 34.2045 28.8011 33.3864 29.0739 32.8182H29.142V34H30.483V28.25C30.483 25.4773 28.3693 25.1591 27.2557 25.1591C25.9375 25.1591 24.4375 25.6136 23.7557 27.2045L25.0284 27.6591C25.3239 27.0227 26.0227 26.3409 27.3011 26.3409C28.5341 26.3409 29.142 26.9943 29.142 28.1136V28.1591C29.142 28.8068 28.483 28.75 26.892 28.9545C25.2727 29.1648 23.5057 29.5227 23.5057 31.5227C23.5057 33.2273 24.8239 34.2045 26.483 34.2045ZM26.6875 33C25.6193 33 24.8466 32.5227 24.8466 31.5909C24.8466 30.5682 25.7784 30.25 26.8239 30.1136C27.392 30.0455 28.9148 29.8864 29.142 29.6136V30.8409C29.142 31.9318 28.2784 33 26.6875 33ZM39.7543 25.2727H38.2997L35.8906 32.2273H35.7997L33.3906 25.2727H31.9361L35.1634 34H36.527L39.7543 25.2727ZM43.8267 34.2045C45.3494 34.2045 46.1449 33.3864 46.4176 32.8182H46.4858V34H47.8267V28.25C47.8267 25.4773 45.7131 25.1591 44.5994 25.1591C43.2812 25.1591 41.7812 25.6136 41.0994 27.2045L42.3722 27.6591C42.6676 27.0227 43.3665 26.3409 44.6449 26.3409C45.8778 26.3409 46.4858 26.9943 46.4858 28.1136V28.1591C46.4858 28.8068 45.8267 28.75 44.2358 28.9545C42.6165 29.1648 40.8494 29.5227 40.8494 31.5227C40.8494 33.2273 42.1676 34.2045 43.8267 34.2045ZM44.0312 33C42.9631 33 42.1903 32.5227 42.1903 31.5909C42.1903 30.5682 43.1222 30.25 44.1676 30.1136C44.7358 30.0455 46.2585 29.8864 46.4858 29.6136V30.8409C46.4858 31.9318 45.6222 33 44.0312 33ZM56.8196 25.2727H58.1832C58.1207 23.517 56.5014 22.2045 54.2514 22.2045C52.0241 22.2045 50.2741 23.5 50.2741 25.4545C50.2741 27.0227 51.4105 27.9545 53.2287 28.4773L54.6605 28.8864C55.8878 29.2273 56.9787 29.6591 56.9787 30.8182C56.9787 32.0909 55.7514 32.9318 54.1378 32.9318C52.7514 32.9318 51.5241 32.3182 51.4105 31H49.956C50.0923 32.9091 51.6378 34.2045 54.1378 34.2045C56.8196 34.2045 58.3423 32.7273 58.3423 30.8409C58.3423 28.6591 56.2741 27.9545 55.0696 27.6364L53.8878 27.3182C53.0241 27.0909 51.6378 26.6364 51.6378 25.3864C51.6378 24.2727 52.6605 23.4545 54.206 23.4545C55.6151 23.4545 56.6832 24.125 56.8196 25.2727ZM64.0227 34.1818C65.9545 34.1818 67.2273 33 67.4545 31.4545H66.1136C65.8636 32.4091 65.0682 32.9773 64.0227 32.9773C62.4318 32.9773 61.4091 31.6591 61.4091 29.6364C61.4091 27.6591 62.4545 26.3636 64.0227 26.3636C65.2045 26.3636 65.9091 27.0909 66.1136 27.8864H67.4545C67.2273 26.25 65.8409 25.1591 64 25.1591C61.6364 25.1591 60.0682 27.0227 60.0682 29.6818C60.0682 32.2955 61.5682 34.1818 64.0227 34.1818ZM69.4148 34H70.7557V28.4773C70.7557 27.2955 71.6875 26.4318 72.9602 26.4318C73.3182 26.4318 73.6875 26.5 73.7784 26.5227V25.1591C73.625 25.1477 73.2727 25.1364 73.0739 25.1364C72.0284 25.1364 71.1193 25.7273 70.8011 26.5909H70.7102V25.2727H69.4148V34ZM75.3679 34H76.7088V25.2727H75.3679V34ZM76.0497 23.8182C76.5724 23.8182 77.0043 23.4091 77.0043 22.9091C77.0043 22.4091 76.5724 22 76.0497 22C75.527 22 75.0952 22.4091 75.0952 22.9091C75.0952 23.4091 75.527 23.8182 76.0497 23.8182ZM79.1648 37.2727H80.5057V32.6591H80.6193C80.9148 33.1364 81.483 34.1818 83.1648 34.1818C85.3466 34.1818 86.8693 32.4318 86.8693 29.6591C86.8693 26.9091 85.3466 25.1591 83.142 25.1591C81.4375 25.1591 80.9148 26.2045 80.6193 26.6591H80.4602V25.2727H79.1648V37.2727ZM80.483 29.6364C80.483 27.6818 81.3466 26.3636 82.983 26.3636C84.6875 26.3636 85.5284 27.7955 85.5284 29.6364C85.5284 31.5 84.6648 32.9773 82.983 32.9773C81.3693 32.9773 80.483 31.6136 80.483 29.6364ZM92.7102 25.2727H90.8466V23.1818H89.5057V25.2727H88.1875V26.4091H89.5057V31.8636C89.5057 33.3864 90.733 34.1136 91.8693 34.1136C92.3693 34.1136 92.6875 34.0227 92.8693 33.9545L92.5966 32.75C92.483 32.7727 92.3011 32.8182 92.0057 32.8182C91.4148 32.8182 90.8466 32.6364 90.8466 31.5V26.4091H92.7102V25.2727Z" fill="white"/>
<path d="M249 25.75L253.5 30.25L258 25.75" stroke="white"/>
</svg>
