<svg width="129" height="10" viewBox="0 0 129 10" fill="none" xmlns="http://www.w3.org/2000/svg">
<path d="M5.82955 2.45455C5.77841 2.02273 5.57102 1.6875 5.20739 1.44886C4.84375 1.21023 4.39773 1.09091 3.86932 1.09091C3.28977 1.09091 2.82386 1.22869 2.47159 1.50426C2.11932 1.77699 1.94318 2.12216 1.94318 2.53977C1.94318 2.85227 2.03835 3.10511 2.22869 3.2983C2.42188 3.48864 2.64915 3.63778 2.91051 3.74574C3.17472 3.85085 3.41477 3.93182 3.63068 3.98864L4.51705 4.22727C4.74432 4.28693 4.99716 4.36932 5.27557 4.47443C5.55682 4.57955 5.82528 4.72301 6.08097 4.90483C6.33949 5.08381 6.55256 5.31392 6.72017 5.59517C6.88778 5.87642 6.97159 6.22159 6.97159 6.63068C6.97159 7.10227 6.84801 7.52841 6.60085 7.90909C6.35653 8.28977 5.99858 8.59233 5.52699 8.81676C5.05824 9.04119 4.48864 9.15341 3.81818 9.15341C2.88068 9.15341 2.13636 8.93182 1.58523 8.48864C1.03409 8.04545 0.732955 7.46591 0.681818 6.75H1.77273C1.80114 7.07955 1.91193 7.35227 2.10511 7.56818C2.30114 7.78125 2.5483 7.94034 2.84659 8.04545C3.14773 8.14773 3.47159 8.19886 3.81818 8.19886C4.22159 8.19886 4.58381 8.13352 4.90483 8.00284C5.22585 7.86932 5.48011 7.68466 5.66761 7.44886C5.85511 7.21023 5.94886 6.93182 5.94886 6.61364C5.94886 6.32386 5.8679 6.08807 5.70597 5.90625C5.54403 5.72443 5.33097 5.5767 5.06676 5.46307C4.80256 5.34943 4.51705 5.25 4.21023 5.16477L3.13636 4.85795C2.45455 4.66193 1.91477 4.3821 1.51705 4.01847C1.11932 3.65483 0.920455 3.17898 0.920455 2.59091C0.920455 2.10227 1.05256 1.67614 1.31676 1.3125C1.58381 0.946023 1.94176 0.661932 2.39062 0.460227C2.84233 0.255682 3.34659 0.153409 3.90341 0.153409C4.46591 0.153409 4.96591 0.254261 5.40341 0.455966C5.84091 0.654829 6.1875 0.927556 6.44318 1.27415C6.7017 1.62074 6.83807 2.0142 6.85227 2.45455H5.82955ZM13.5092 9V0.272727H18.7762V1.21023H14.566V4.15909H18.5035V5.09659H14.566V8.0625H18.8444V9H13.5092ZM31.2083 0.272727H32.2651V6.05114C32.2651 6.70455 32.1103 7.26278 31.8006 7.72585C31.491 8.18892 31.079 8.54261 30.5648 8.78693C30.0506 9.03125 29.4867 9.15341 28.8731 9.15341C28.2594 9.15341 27.6955 9.03125 27.1813 8.78693C26.6671 8.54261 26.2552 8.18892 25.9455 7.72585C25.6359 7.26278 25.481 6.70455 25.481 6.05114V0.272727H26.5379V6.05114C26.5379 6.50568 26.6458 6.89062 26.8617 7.20597C27.0776 7.51847 27.3631 7.7571 27.7183 7.92188C28.0734 8.08381 28.4583 8.16477 28.8731 8.16477C29.2879 8.16477 29.6728 8.08381 30.0279 7.92188C30.383 7.7571 30.6685 7.51847 30.8844 7.20597C31.1004 6.89062 31.2083 6.50568 31.2083 6.05114V0.272727ZM47.3506 9V0.272727H50.2994C50.9841 0.272727 51.5438 0.396307 51.9784 0.643466C52.4159 0.887784 52.7398 1.21875 52.95 1.63636C53.1602 2.05398 53.2653 2.51989 53.2653 3.03409C53.2653 3.5483 53.1602 4.01562 52.95 4.43608C52.7426 4.85653 52.4216 5.19176 51.9869 5.44176C51.5523 5.68892 50.9955 5.8125 50.3165 5.8125H48.4074V9H47.3506ZM48.4074 4.875H50.2824C50.9841 4.875 51.4827 4.69886 51.7781 4.34659C52.0764 3.99432 52.2256 3.55682 52.2256 3.03409C52.2256 2.50852 52.0764 2.07386 51.7781 1.73011C51.4798 1.38352 50.9756 1.21023 50.2653 1.21023H48.4074V4.875ZM59.7678 9V0.272727H62.7166C63.3984 0.272727 63.9581 0.389204 64.3956 0.622159C64.8331 0.852272 65.157 1.16903 65.3672 1.57244C65.5774 1.97585 65.6825 2.43466 65.6825 2.94886C65.6825 3.52841 65.549 4.03409 65.282 4.46591C65.0178 4.89489 64.6072 5.20455 64.0504 5.39489L66.0234 9H64.7962L62.9553 5.58665C62.8842 5.58949 62.8104 5.59091 62.7337 5.59091H60.8246V9H59.7678ZM60.8246 4.63636H62.6996C63.3984 4.63636 63.897 4.4858 64.1953 4.18466C64.4936 3.88352 64.6428 3.47159 64.6428 2.94886C64.6428 2.4233 64.4922 2.00284 64.1911 1.6875C63.8928 1.36932 63.3899 1.21023 62.6825 1.21023H60.8246V4.63636ZM79.6072 4.63636C79.6072 5.55682 79.441 6.35227 79.1086 7.02273C78.7762 7.69318 78.3202 8.21023 77.7407 8.57386C77.1612 8.9375 76.4992 9.11932 75.7549 9.11932C75.0106 9.11932 74.3487 8.9375 73.7691 8.57386C73.1896 8.21023 72.7336 7.69318 72.4012 7.02273C72.0688 6.35227 71.9026 5.55682 71.9026 4.63636C71.9026 3.71591 72.0688 2.92045 72.4012 2.25C72.7336 1.57955 73.1896 1.0625 73.7691 0.698864C74.3487 0.335227 75.0106 0.153409 75.7549 0.153409C76.4992 0.153409 77.1612 0.335227 77.7407 0.698864C78.3202 1.0625 78.7762 1.57955 79.1086 2.25C79.441 2.92045 79.6072 3.71591 79.6072 4.63636ZM78.5844 4.63636C78.5844 3.88068 78.458 3.2429 78.2052 2.72301C77.9552 2.20312 77.6157 1.80966 77.1867 1.54261C76.7606 1.27557 76.2833 1.14205 75.7549 1.14205C75.2265 1.14205 74.7478 1.27557 74.3188 1.54261C73.8927 1.80966 73.5532 2.20312 73.3004 2.72301C73.0504 3.2429 72.9254 3.88068 72.9254 4.63636C72.9254 5.39205 73.0504 6.02983 73.3004 6.54972C73.5532 7.0696 73.8927 7.46307 74.3188 7.73011C74.7478 7.99716 75.2265 8.13068 75.7549 8.13068C76.2833 8.13068 76.7606 7.99716 77.1867 7.73011C77.6157 7.46307 77.9552 7.0696 78.2052 6.54972C78.458 6.02983 78.5844 5.39205 78.5844 4.63636ZM89.5251 0.272727H90.5819V6.51136C90.5819 7.34943 90.356 7.99432 89.9043 8.44602C89.4555 8.89489 88.8518 9.11932 88.0933 9.11932C87.616 9.11932 87.1913 9.03267 86.8191 8.85938C86.4469 8.68324 86.1543 8.43324 85.9413 8.10938C85.7282 7.78551 85.6217 7.40057 85.6217 6.95455H86.6614C86.6614 7.32386 86.7964 7.62074 87.0663 7.84517C87.3361 8.0696 87.6785 8.18182 88.0933 8.18182C88.5506 8.18182 88.9029 8.03977 89.1501 7.75568C89.4001 7.46875 89.5251 7.05398 89.5251 6.51136V0.272727ZM97.4998 9V0.272727H102.767V1.21023H98.5566V4.15909H102.494V5.09659H98.5566V8.0625H102.835V9H97.4998ZM108.994 1.21023V0.272727H115.54V1.21023H112.796V9H111.739V1.21023H108.994ZM128.971 4.63636C128.971 5.55682 128.805 6.35227 128.473 7.02273C128.14 7.69318 127.684 8.21023 127.105 8.57386C126.525 8.9375 125.863 9.11932 125.119 9.11932C124.375 9.11932 123.713 8.9375 123.133 8.57386C122.554 8.21023 122.098 7.69318 121.765 7.02273C121.433 6.35227 121.267 5.55682 121.267 4.63636C121.267 3.71591 121.433 2.92045 121.765 2.25C122.098 1.57955 122.554 1.0625 123.133 0.698864C123.713 0.335227 124.375 0.153409 125.119 0.153409C125.863 0.153409 126.525 0.335227 127.105 0.698864C127.684 1.0625 128.14 1.57955 128.473 2.25C128.805 2.92045 128.971 3.71591 128.971 4.63636ZM127.949 4.63636C127.949 3.88068 127.822 3.2429 127.569 2.72301C127.319 2.20312 126.98 1.80966 126.551 1.54261C126.125 1.27557 125.647 1.14205 125.119 1.14205C124.591 1.14205 124.112 1.27557 123.683 1.54261C123.257 1.80966 122.917 2.20312 122.664 2.72301C122.414 3.2429 122.289 3.88068 122.289 4.63636C122.289 5.39205 122.414 6.02983 122.664 6.54972C122.917 7.0696 123.257 7.46307 123.683 7.73011C124.112 7.99716 124.591 8.13068 125.119 8.13068C125.647 8.13068 126.125 7.99716 126.551 7.73011C126.98 7.46307 127.319 7.0696 127.569 6.54972C127.822 6.02983 127.949 5.39205 127.949 4.63636Z" fill="white"/>
</svg>
